<?xml version="1.0" standalone="no"?>
<!DOCTYPE svg PUBLIC "-//W3C//DTD SVG 20010904//EN"
 "http://www.w3.org/TR/2001/REC-SVG-20010904/DTD/svg10.dtd">
<svg version="1.0" xmlns="http://www.w3.org/2000/svg"
 width="400.000000pt" height="400.000000pt" viewBox="0 0 400.000000 400.000000"
 preserveAspectRatio="xMidYMid meet">
<metadata>
Created by potrace 1.11, written by Peter Selinger 2001-2013
</metadata>
<g transform="translate(0.000000,400.000000) scale(0.100000,-0.100000)"
fill="#000000" stroke="none">
<path d="M0 3420 c0 -509 2 -580 15 -580 8 0 15 -7 15 -15 0 -8 -7 -15 -15
-15 -13 0 -15 -146 -15 -1250 0 -1104 2 -1250 15 -1250 10 0 15 -10 15 -30 0
-23 4 -30 20 -30 11 0 20 7 20 15 0 8 7 15 15 15 8 0 15 7 15 15 0 8 5 15 10
15 6 0 10 -7 10 -15 0 -12 17 -15 95 -15 l95 0 0 -30 c0 -20 -5 -30 -15 -30
-11 0 -15 -12 -15 -45 0 -33 -4 -45 -15 -45 -11 0 -15 12 -15 46 0 38 -3 45
-18 42 -12 -2 -18 -15 -20 -46 -3 -37 0 -44 17 -49 31 -8 25 -23 -9 -23 -20 0
-30 5 -30 15 0 8 -9 15 -20 15 -11 0 -20 -7 -20 -15 0 -8 -4 -15 -10 -15 -5 0
-10 7 -10 15 0 8 -7 15 -15 15 -8 0 -15 7 -15 15 0 11 -12 15 -50 15 l-50 0 0
-80 0 -80 160 0 c136 0 160 2 160 15 0 9 9 15 25 15 16 0 25 -6 25 -15 0 -10
11 -15 35 -15 29 0 35 4 35 21 0 18 -5 21 -30 17 -24 -4 -30 -1 -30 14 0 10
-7 18 -15 18 -8 0 -15 7 -15 15 0 8 -9 15 -20 15 -13 0 -20 -7 -20 -18 0 -15
-6 -18 -30 -14 -35 5 -39 17 -9 25 12 3 18 10 15 15 -3 5 4 12 15 15 12 3 18
10 14 16 -4 7 5 11 24 11 28 0 31 -3 31 -30 0 -28 3 -30 35 -30 24 0 35 5 35
15 0 8 7 15 15 15 8 0 15 7 15 15 0 8 7 15 15 15 8 0 15 -7 15 -15 0 -8 7 -15
15 -15 8 0 15 -7 15 -15 0 -8 9 -15 20 -15 11 0 20 7 20 15 0 9 9 15 25 15 16
0 25 -6 25 -15 0 -8 7 -15 15 -15 8 0 15 -7 15 -15 0 -8 7 -15 15 -15 8 0 15
-4 15 -10 0 -5 -3 -9 -7 -9 -5 1 -32 1 -60 0 -46 -1 -53 -4 -53 -21 0 -20 7
-20 690 -20 l690 0 0 21 c0 18 -5 21 -30 17 -27 -4 -30 -2 -30 24 0 18 5 28
15 28 8 0 15 9 15 20 0 13 -7 20 -20 20 -11 0 -20 -7 -20 -15 0 -8 -4 -15 -10
-15 -5 0 -10 7 -10 15 0 8 -9 15 -20 15 -11 0 -20 -7 -20 -15 0 -8 -5 -15 -10
-15 -7 0 -7 6 0 19 14 26 13 31 -6 31 -8 0 -13 -4 -9 -9 3 -5 -5 -11 -17 -13
-18 -2 -22 -8 -20 -30 2 -19 -2 -28 -12 -28 -15 0 -26 57 -18 97 3 19 10 22
35 20 24 -1 32 2 34 18 10 58 27 105 39 105 8 0 14 -7 14 -15 0 -8 -7 -15 -15
-15 -10 0 -15 -11 -15 -35 0 -41 25 -49 39 -13 9 24 16 16 23 -27 2 -11 10
-20 18 -20 11 0 16 14 18 47 2 34 7 48 18 48 11 0 12 -4 5 -19 -15 -28 0 -105
22 -109 12 -2 17 3 17 17 0 14 5 19 15 15 8 -4 15 -13 15 -21 0 -11 8 -14 30
-11 24 4 30 1 30 -14 0 -10 7 -18 15 -18 8 0 15 -4 15 -10 0 -5 -7 -10 -15
-10 -8 0 -15 -7 -15 -15 0 -8 -7 -15 -15 -15 -8 0 -15 -7 -15 -15 0 -8 -7 -15
-15 -15 -8 0 -15 5 -15 10 0 6 -7 10 -15 10 -8 0 -15 -7 -15 -15 0 -8 -4 -15
-10 -15 -5 0 -10 -7 -10 -15 0 -21 28 -19 33 2 4 17 5 17 6 1 1 -24 81 -26 81
-3 0 8 5 15 10 15 6 0 10 -7 10 -15 0 -13 23 -15 145 -15 122 0 145 2 145 15
0 8 5 15 10 15 6 0 10 -7 10 -15 0 -10 11 -15 35 -15 28 0 35 4 35 20 0 11 7
20 15 20 8 0 15 5 15 10 0 15 -20 12 -38 -7 -16 -16 -17 -15 -20 5 -3 17 -10
22 -33 22 -16 0 -29 5 -29 10 0 6 7 10 15 10 8 0 15 7 15 15 0 11 12 15 45 15
32 0 45 4 45 14 0 9 12 16 33 18 17 2 33 9 33 16 1 6 2 21 3 32 0 11 8 20 16
20 8 0 15 7 15 15 0 8 5 15 10 15 6 0 10 -7 10 -15 0 -14 11 -17 69 -19 31 -1
39 -22 11 -29 -26 -7 -26 -26 1 -35 20 -8 20 -10 5 -24 -26 -27 -11 -44 34
-40 25 3 40 0 40 -7 0 -6 -19 -11 -45 -11 -33 0 -45 4 -45 15 0 8 -9 15 -20
15 -11 0 -20 -7 -20 -15 0 -11 -11 -15 -39 -15 -25 0 -41 5 -45 15 -3 8 -12
15 -21 15 -11 0 -15 -12 -15 -50 l0 -50 425 0 c371 0 425 2 425 15 0 9 9 15
25 15 16 0 25 -6 25 -15 0 -13 38 -15 285 -15 l285 0 0 160 c0 136 -2 160 -15
160 -8 0 -15 5 -15 10 0 6 7 10 15 10 12 0 15 14 15 65 l0 65 -30 0 c-16 0
-30 4 -30 8 0 5 14 7 30 4 29 -4 30 -3 30 31 0 25 -5 37 -17 40 -17 4 -17 5 0
6 16 1 17 32 17 501 0 438 -2 500 -15 500 -10 0 -15 10 -15 29 0 21 -6 30 -21
34 -12 3 -18 10 -15 15 3 5 -4 12 -15 15 -17 5 -20 11 -16 33 3 20 0 28 -14
31 -11 3 -19 12 -19 19 0 8 -7 14 -15 14 -10 0 -15 10 -15 30 0 20 -5 30 -15
30 -8 0 -15 7 -15 15 0 10 -10 15 -30 15 -27 0 -30 -3 -30 -30 0 -20 -5 -30
-15 -30 -8 0 -15 -7 -15 -15 0 -8 -7 -15 -15 -15 -8 0 -15 -7 -15 -15 0 -8 -7
-15 -15 -15 -10 0 -15 10 -15 30 0 23 -4 30 -20 30 -11 0 -20 7 -20 15 0 8 -7
15 -15 15 -10 0 -15 10 -15 30 0 20 -5 30 -15 30 -10 0 -15 11 -15 35 0 35 0
35 -45 35 -33 0 -45 -4 -45 -15 0 -20 -56 -20 -64 0 -3 8 -13 15 -21 15 -9 0
-13 5 -10 11 4 6 -2 13 -14 16 -12 3 -21 12 -21 19 0 8 -7 14 -15 14 -11 0
-15 12 -15 45 0 33 -4 45 -15 45 -8 0 -15 7 -15 15 0 8 -7 15 -15 15 -8 0 -15
7 -15 15 0 12 -13 15 -61 15 -52 0 -62 3 -66 19 -5 18 -16 19 -174 20 -143 0
-169 -2 -169 -14 0 -8 -6 -15 -14 -15 -7 0 -16 -10 -19 -21 -5 -17 -11 -20
-31 -17 -20 4 -26 1 -26 -13 0 -14 -7 -19 -29 -19 -16 0 -31 -6 -35 -15 -3 -8
-12 -15 -21 -15 -8 0 -15 -7 -15 -15 0 -8 -7 -15 -15 -15 -10 0 -15 -10 -15
-30 0 -20 -5 -30 -15 -30 -12 0 -15 13 -15 60 0 47 -3 60 -15 60 -8 0 -15 9
-15 20 0 11 -7 20 -15 20 -11 0 -15 12 -15 45 0 43 -1 45 -30 45 -29 0 -30 2
-30 45 0 33 -4 45 -15 45 -10 0 -15 10 -15 30 0 32 14 40 24 15 8 -22 36 -18
36 5 0 11 -7 20 -15 20 -8 0 -15 7 -15 15 0 8 -9 15 -20 15 -11 0 -20 7 -20
15 0 8 -7 15 -15 15 -9 0 -12 6 -9 15 4 10 20 15 50 15 42 0 44 1 44 30 0 20
5 30 15 30 8 0 15 -7 15 -15 0 -8 7 -15 15 -15 8 0 15 7 15 15 0 8 -7 15 -15
15 -8 0 -15 7 -15 15 0 8 7 15 15 15 8 0 15 9 15 20 0 11 4 20 10 20 12 0 80
68 80 80 0 6 7 10 15 10 8 0 15 7 15 15 0 8 7 15 15 15 9 0 15 9 15 23 0 38
12 67 26 67 9 0 14 -11 14 -30 0 -20 5 -30 15 -30 11 0 15 12 15 44 0 41 2 45
30 51 17 4 30 13 30 21 0 8 7 14 15 14 8 0 15 7 15 15 0 8 7 15 15 15 12 0 15
15 15 75 0 60 -3 75 -15 75 -8 0 -15 7 -15 15 0 8 -7 15 -15 15 -10 0 -15 -10
-15 -30 0 -20 -5 -30 -15 -30 -11 0 -15 12 -15 45 0 33 4 45 15 45 11 0 15 12
15 50 0 38 -4 50 -15 50 -11 0 -15 -12 -15 -50 0 -49 -1 -50 -30 -50 -20 0
-30 -5 -30 -15 0 -8 -7 -15 -15 -15 -8 0 -15 -7 -15 -15 0 -8 -7 -15 -15 -15
-10 0 -15 -10 -15 -30 0 -20 5 -30 15 -30 8 0 15 7 15 15 0 8 7 15 15 15 10 0
15 10 15 30 0 20 5 30 15 30 11 0 15 -12 15 -45 0 -38 -3 -45 -20 -45 -11 0
-20 -7 -20 -15 0 -9 -9 -15 -25 -15 -16 0 -25 6 -25 15 0 10 -11 15 -35 15
-24 0 -35 -5 -35 -15 0 -8 7 -15 15 -15 8 0 15 -7 15 -15 0 -12 -13 -15 -60
-15 -47 0 -60 -3 -60 -15 0 -11 -12 -15 -50 -15 -38 0 -50 -4 -50 -15 0 -8 -4
-15 -9 -15 -5 0 -11 7 -15 15 -8 23 -57 19 -63 -5 -3 -11 -12 -20 -19 -20 -8
0 -14 -7 -14 -15 0 -8 7 -15 15 -15 8 0 15 -7 15 -15 0 -8 7 -15 15 -15 10 0
15 -10 15 -30 0 -20 -5 -30 -15 -30 -8 0 -15 7 -15 15 0 8 -7 15 -15 15 -8 0
-15 9 -15 20 0 27 -20 25 -47 -4 -28 -29 -29 -46 -3 -46 11 0 20 7 20 15 0 8
7 15 15 15 8 0 15 -7 15 -15 0 -8 7 -15 15 -15 10 0 15 -11 15 -35 0 -24 -5
-35 -15 -35 -8 0 -15 9 -15 20 0 11 -7 20 -15 20 -10 0 -15 -11 -15 -35 0 -24
5 -35 15 -35 25 0 19 -47 -7 -54 -36 -9 -38 -8 -38 29 0 33 -2 35 -35 35 l-35
0 0 -50 0 -50 35 0 c24 0 35 -5 35 -15 0 -10 -11 -15 -35 -15 -24 0 -35 5 -35
15 0 10 -10 15 -30 15 -20 0 -30 5 -30 15 0 10 -10 15 -30 15 -20 0 -30 5 -30
15 0 8 7 15 15 15 10 0 15 11 15 35 0 24 -5 35 -15 35 -10 0 -15 -10 -15 -29
0 -21 -6 -30 -22 -35 -35 -9 -38 -8 -38 14 0 11 -6 20 -14 20 -7 0 -16 -9 -19
-20 -3 -13 -14 -20 -31 -20 -28 0 -66 -27 -66 -47 0 -7 -7 -13 -15 -13 -8 0
-15 -7 -15 -15 0 -8 7 -15 15 -15 8 0 15 -7 15 -15 0 -8 7 -15 15 -15 8 0 15
7 15 15 0 8 9 15 20 15 11 0 19 -5 18 -12 -2 -6 5 -14 15 -16 10 -2 17 2 17
12 0 9 5 16 10 16 6 0 10 -7 10 -15 0 -8 9 -15 20 -15 11 0 20 7 20 15 0 10
10 15 30 15 27 0 30 -3 30 -30 0 -20 -5 -30 -15 -30 -8 0 -15 -7 -15 -15 0 -8
7 -15 15 -15 8 0 15 -7 15 -15 0 -10 10 -15 30 -15 27 0 30 -3 30 -30 0 -24
-4 -30 -22 -30 -39 0 -68 -12 -68 -26 0 -9 11 -14 30 -14 21 0 30 -5 30 -16 0
-14 -7 -16 -45 -11 l-45 7 0 -35 c0 -24 5 -35 15 -35 8 0 15 -7 15 -15 0 -10
10 -15 30 -15 27 0 30 3 30 30 0 20 5 30 15 30 8 0 15 -7 15 -15 0 -10 11 -15
35 -15 24 0 35 5 35 15 0 8 7 15 15 15 8 0 15 -7 15 -15 0 -8 7 -15 15 -15 8
0 15 -7 15 -15 0 -10 10 -15 30 -15 20 0 30 -5 30 -15 0 -8 7 -15 15 -15 8 0
15 7 15 15 0 8 -7 15 -15 15 -10 0 -15 10 -15 30 0 20 5 30 15 30 10 0 15 -10
15 -30 0 -20 5 -30 15 -30 11 0 15 -11 15 -42 0 -57 9 -88 26 -88 10 0 12 -13
8 -52 -7 -78 5 -168 22 -168 8 0 14 -7 14 -15 0 -8 -9 -15 -20 -15 -11 0 -20
7 -20 15 0 8 -7 15 -15 15 -8 0 -15 7 -15 15 0 8 -7 15 -15 15 -8 0 -15 7 -15
15 0 12 -13 15 -60 15 -47 0 -60 -3 -60 -15 0 -11 -12 -15 -45 -15 -33 0 -45
-4 -45 -15 0 -10 -11 -15 -35 -15 -22 0 -34 -4 -33 -12 2 -6 -5 -14 -14 -16
-11 -2 -18 2 -18 12 0 13 -13 16 -65 16 -51 0 -65 3 -65 15 0 8 -7 15 -15 15
-8 0 -15 8 -15 18 0 14 -7 17 -45 14 -40 -4 -45 -2 -45 17 0 12 -4 21 -10 21
-13 0 -50 37 -50 50 0 6 -16 10 -35 10 -24 0 -35 5 -35 15 0 8 -7 15 -15 15
-8 0 -15 6 -15 14 0 10 -19 16 -62 22 -59 7 -61 8 -28 15 24 4 5 7 -57 8 -77
1 -93 -2 -93 -14 0 -12 -14 -15 -65 -15 -51 0 -65 -3 -65 -15 0 -10 -10 -15
-30 -15 -27 0 -30 -3 -30 -30 0 -20 5 -30 15 -30 8 0 15 -7 15 -15 0 -8 -6
-15 -14 -15 -7 0 -16 -9 -19 -20 -7 -28 -57 -28 -64 0 -3 11 -12 20 -19 20 -8
0 -14 7 -14 15 0 8 -7 15 -15 15 -8 0 -15 7 -15 15 0 10 -11 15 -35 15 -24 0
-35 5 -35 15 0 9 -9 15 -25 15 -16 0 -25 -6 -25 -15 0 -10 -11 -15 -35 -15
-24 0 -35 5 -35 15 0 8 -7 15 -15 15 -8 0 -15 7 -15 15 0 10 -10 15 -30 15
-20 0 -30 5 -30 15 0 11 -12 15 -45 15 -33 0 -45 -4 -45 -15 0 -10 -10 -15
-30 -15 -20 0 -30 -5 -30 -15 0 -11 -12 -15 -50 -15 -38 0 -50 -4 -50 -15 0
-11 -12 -15 -50 -15 -38 0 -50 4 -50 15 0 8 -7 15 -15 15 -13 0 -15 22 -15
139 l0 140 -27 3 c-33 4 -41 24 -12 31 11 3 18 10 15 16 -3 5 7 12 24 16 l30
7 0 105 c0 96 2 105 20 110 14 4 20 14 20 34 0 19 5 29 15 29 12 0 15 13 15
60 0 47 3 60 15 60 10 0 15 10 15 30 0 20 5 30 15 30 8 0 15 -7 15 -15 0 -8 7
-15 15 -15 8 0 15 7 15 15 0 8 -7 15 -16 15 -9 0 -14 7 -12 17 2 11 12 17 28
17 20 0 26 -6 30 -28 6 -33 30 -48 30 -19 0 11 7 28 15 39 14 19 15 19 21 -3
8 -28 24 -30 31 -3 7 27 63 29 63 3 0 -16 14 -18 125 -21 120 -3 125 -2 125
18 0 11 7 20 15 20 8 0 15 7 15 15 0 10 10 15 30 15 20 0 30 5 30 15 0 10 -10
15 -30 15 -21 0 -30 5 -30 16 0 13 -7 15 -30 11 -25 -6 -30 -3 -30 13 0 16 7
20 30 20 19 0 30 -5 30 -14 0 -7 12 -16 27 -19 32 -6 43 -1 43 19 0 9 -11 14
-35 14 -24 0 -35 5 -35 15 0 10 -10 15 -30 15 -20 0 -30 -5 -30 -15 0 -11 -12
-15 -44 -15 -35 0 -45 4 -49 20 -3 13 -10 18 -21 14 -20 -8 -21 -34 -1 -34 8
0 15 -7 15 -15 0 -8 -7 -15 -15 -15 -10 0 -15 -10 -15 -30 0 -20 -5 -30 -15
-30 -8 0 -15 -9 -15 -20 0 -11 -7 -20 -15 -20 -8 0 -15 9 -15 20 0 11 7 20 15
20 9 0 18 12 21 30 4 17 11 30 16 30 13 0 0 52 -15 62 -8 5 -7 14 3 34 11 20
16 23 18 11 4 -21 42 -22 42 -2 0 9 -7 18 -16 22 -13 5 -13 7 -2 14 10 7 9 9
-4 9 -23 0 -23 29 0 37 9 4 21 11 25 17 4 6 5 -1 1 -16 -3 -16 -2 -28 4 -28 5
0 13 25 17 55 3 30 11 55 16 55 6 0 8 -3 6 -7 -3 -5 -1 -18 4 -31 8 -20 14
-23 39 -17 26 6 30 4 30 -15 0 -19 4 -21 30 -15 34 8 90 -2 90 -16 0 -5 -3 -8
-7 -8 -5 1 -10 0 -13 -1 -21 -8 -64 -9 -69 -1 -3 5 -19 13 -34 16 -23 6 -27 4
-27 -14 0 -13 7 -21 18 -22 9 -1 2 -6 -15 -11 -38 -12 -44 -38 -10 -38 39 0
67 12 67 27 0 11 6 14 23 9 12 -3 34 -6 49 -6 17 0 27 -5 25 -12 -1 -9 16 -15
48 -19 28 -3 42 -7 33 -7 -29 -3 -20 -18 12 -20 24 -2 30 2 30 18 0 11 7 20
15 20 11 0 15 -12 15 -50 l0 -50 45 0 c33 0 45 4 45 15 0 8 9 15 20 15 11 0
20 -7 20 -15 0 -12 13 -15 60 -15 47 0 60 3 60 15 0 11 12 15 45 15 32 0 45 4
45 14 0 7 9 16 20 19 28 7 27 53 -1 60 -22 6 -22 28 0 35 7 2 15 -5 18 -17 8
-29 63 -30 63 -1 0 11 7 20 15 20 8 0 15 -9 15 -20 0 -11 7 -20 15 -20 8 0 15
-7 15 -15 0 -8 7 -15 15 -15 8 0 15 -7 15 -15 0 -10 10 -15 30 -15 20 0 30 5
30 15 0 8 9 15 20 15 16 0 20 -7 20 -30 0 -29 2 -30 45 -30 33 0 45 4 45 15 0
11 12 15 45 15 43 0 45 1 45 29 0 26 4 30 32 33 31 3 53 28 24 28 -23 0 -31
22 -13 35 10 7 17 17 17 24 0 6 9 11 20 11 11 0 20 -7 20 -15 0 -10 10 -15 30
-15 20 0 30 5 30 15 0 8 7 15 15 15 8 0 15 -7 15 -15 0 -10 10 -15 30 -15 20
0 30 5 30 15 0 12 14 15 65 15 51 0 65 3 65 15 0 8 7 15 15 15 10 0 15 10 15
30 0 20 -5 30 -15 30 -10 0 -15 10 -15 30 0 20 -5 30 -15 30 -10 0 -15 11 -15
35 0 32 2 35 31 35 18 0 28 4 24 10 -4 6 -11 8 -16 5 -5 -4 -9 5 -9 19 0 16 6
26 15 26 9 0 15 9 15 21 0 20 4 21 45 17 34 -4 45 -2 45 8 0 10 -13 14 -45 14
-32 0 -45 4 -45 14 0 8 -14 18 -32 22 -29 6 -30 8 -13 15 17 7 18 8 2 8 -10 1
-20 8 -24 17 -5 13 -7 13 -14 2 -6 -8 -9 5 -9 35 0 28 -5 47 -11 47 -8 0 -8 5
1 15 7 8 19 15 26 15 8 0 14 7 14 15 0 8 7 15 15 15 23 0 18 27 -6 33 -12 3
-18 10 -14 16 3 7 -2 11 -14 11 -12 0 -21 7 -21 15 0 11 -12 15 -45 15 -30 0
-44 -4 -43 -12 2 -6 -5 -14 -14 -16 -11 -2 -18 2 -18 12 0 9 -7 16 -15 16 -8
0 -15 7 -15 15 0 8 -7 15 -15 15 -8 0 -15 -7 -15 -15 0 -8 -7 -15 -15 -15 -8
0 -15 9 -15 20 0 11 -6 20 -14 20 -8 0 -17 14 -21 31 -8 37 -30 33 -30 -7 0
-27 -3 -29 -32 -26 -27 2 -33 -2 -33 -18 0 -11 7 -20 15 -20 8 0 15 -5 15 -10
0 -7 -6 -7 -20 0 -11 6 -20 17 -20 25 0 9 -10 15 -25 15 -18 0 -25 5 -25 20 0
11 -7 20 -15 20 -10 0 -15 10 -15 30 0 27 3 30 30 30 20 0 30 5 30 15 0 13
-29 15 -200 15 -171 0 -200 -2 -200 -15 0 -8 -9 -15 -20 -15 -17 0 -20 -7 -20
-50 0 -38 4 -50 15 -50 8 0 15 -4 15 -10 0 -5 -7 -10 -15 -10 -8 0 -15 -7 -15
-15 0 -8 -4 -15 -10 -15 -5 0 -10 20 -10 45 0 38 -3 45 -20 45 -11 0 -20 -7
-20 -15 0 -8 -6 -15 -14 -15 -8 0 -21 -3 -30 -6 -12 -5 -16 0 -16 22 0 23 7
32 31 43 16 7 41 11 55 8 13 -2 24 0 24 4 0 5 -13 9 -29 9 -16 0 -43 3 -60 6
-24 5 -31 3 -31 -10 0 -9 -4 -16 -10 -16 -5 0 -10 7 -10 15 0 8 -7 15 -15 15
-8 0 -15 7 -15 15 0 13 -21 15 -130 15 -109 0 -130 -2 -130 -15 0 -9 -9 -15
-25 -15 -16 0 -25 6 -25 15 0 13 -68 15 -550 15 l-550 0 0 -580z m1650 530 c0
-5 -4 -10 -10 -10 -5 0 -10 5 -10 10 0 6 5 10 10 10 6 0 10 -4 10 -10z m220
-30 c0 -21 -15 -27 -25 -10 -7 12 2 30 16 30 5 0 9 -9 9 -20z m-810 -45 c0
-30 -4 -55 -10 -55 -5 0 -10 14 -10 30 0 28 -3 30 -35 30 -44 0 -46 18 -2 22
19 2 31 8 30 16 -2 6 4 12 12 12 12 0 15 -13 15 -55z m370 45 c0 -5 -4 -10
-10 -10 -5 0 -10 5 -10 10 0 6 5 10 10 10 6 0 10 -4 10 -10z m508 -41 c-2 -29
-4 -30 -38 -25 l-35 5 3 -40 c3 -25 9 -39 18 -39 8 0 14 -7 14 -15 0 -8 7 -15
15 -15 8 0 15 -6 15 -14 0 -16 -53 -31 -70 -21 -7 4 -9 -7 -7 -32 3 -21 2 -28
0 -15 -3 14 -12 22 -24 22 -14 0 -19 -7 -19 -29 0 -16 -6 -31 -15 -35 -8 -3
-15 -12 -15 -21 0 -8 7 -15 15 -15 8 0 15 6 15 14 0 8 14 17 30 21 25 5 30 11
30 36 0 22 5 29 20 29 17 0 20 -7 20 -45 0 -25 5 -45 10 -45 6 0 10 -7 10 -15
0 -7 8 -19 18 -24 9 -6 11 -11 5 -11 -7 0 -13 -4 -13 -10 0 -5 3 -9 8 -9 27 5
52 -3 52 -16 0 -8 7 -15 15 -15 8 0 15 -7 15 -15 0 -10 -10 -15 -30 -15 -20 0
-30 5 -30 15 0 10 -10 15 -30 15 -20 0 -30 5 -30 15 0 18 -37 20 -43 3 -2 -7
-2 -1 0 15 3 15 0 27 -6 27 -6 0 -11 -7 -11 -15 0 -9 -10 -15 -26 -15 -14 0
-23 -4 -19 -10 10 -17 -7 -11 -20 6 -8 11 -19 14 -33 10 -30 -10 -28 -36 2
-36 16 0 26 -7 29 -21 3 -12 10 -18 16 -14 6 3 11 -1 11 -9 0 -9 -7 -16 -15
-16 -8 0 -15 -4 -15 -9 0 -5 -13 -4 -30 2 -25 10 -29 17 -32 56 -3 49 -25 68
-35 30 -6 -22 -7 -22 -14 -3 -12 30 -11 134 2 134 5 0 8 -4 5 -9 -7 -11 17
-21 50 -21 17 0 24 6 24 20 0 16 -7 20 -30 20 -29 0 -30 2 -30 45 0 33 -4 45
-15 45 -8 0 -15 7 -15 15 0 10 10 15 30 15 20 0 30 5 30 15 0 8 7 15 15 15 8
0 15 -7 15 -15 0 -8 -7 -15 -15 -15 -10 0 -15 -10 -15 -30 0 -19 5 -30 14 -30
7 0 16 -9 19 -20 10 -40 67 -17 67 27 0 13 6 23 14 23 15 0 30 79 20 105 -5
11 1 15 19 15 16 0 26 7 30 20 3 11 12 20 21 20 12 0 16 -8 14 -31z m-128 -14
c0 -8 9 -15 20 -15 13 0 20 -7 20 -20 0 -13 -7 -20 -20 -20 -11 0 -20 7 -20
15 0 8 -7 15 -15 15 -15 0 -21 21 -8 33 11 12 23 8 23 -8z m-1470 -25 c0 -22
-4 -28 -15 -24 -11 4 -12 11 -5 24 5 9 6 20 3 24 -3 3 -1 6 5 6 7 0 12 -13 12
-30z m1060 20 c0 -5 -4 -10 -10 -10 -5 0 -10 5 -10 10 0 6 5 10 10 10 6 0 10
-4 10 -10z m85 0 c17 -7 15 -9 -12 -9 -18 -1 -33 4 -33 9 0 12 17 12 45 0z
m-1205 -35 c0 -16 -20 -16 -32 0 -5 6 -12 4 -18 -5 -8 -13 -10 -12 -10 3 0 12
8 17 30 17 20 0 30 -5 30 -15z m120 0 c0 -8 9 -15 21 -15 12 0 17 -4 14 -11
-4 -6 2 -13 14 -16 23 -6 24 -7 15 -40 -4 -13 -13 -23 -21 -23 -9 0 -13 -6 -9
-15 7 -19 -30 -21 -38 -2 -3 6 -3 0 0 -15 4 -17 2 -28 -5 -28 -6 0 -10 3 -10
8 5 32 -3 52 -21 52 -11 0 -20 7 -20 15 0 8 9 15 20 15 17 0 20 7 20 45 0 25
5 45 10 45 6 0 10 -7 10 -15z m500 5 c0 -5 -4 -10 -10 -10 -5 0 -10 5 -10 10
0 6 5 10 10 10 6 0 10 -4 10 -10z m1070 1 c0 -5 -7 -11 -15 -15 -9 -3 -15 0
-15 9 0 8 7 15 15 15 8 0 15 -4 15 -9z m270 -1 c0 -5 -12 -10 -27 -9 -25 0
-26 1 -8 9 27 12 35 12 35 0z m-1931 -47 c-1 -34 -17 -79 -18 -50 -1 10 -9 17
-21 17 -28 0 -25 28 3 32 12 2 21 9 20 16 -2 6 2 12 7 12 6 0 10 -12 9 -27z
m186 17 c3 -5 -1 -10 -9 -10 -9 0 -16 5 -16 10 0 6 4 10 9 10 6 0 13 -4 16
-10z m65 -5 c0 -8 -7 -15 -15 -15 -8 0 -15 7 -15 15 0 8 7 15 15 15 8 0 15 -7
15 -15z m310 -30 c0 -25 -4 -45 -10 -45 -5 0 -10 20 -10 45 0 25 5 45 10 45 6
0 10 -20 10 -45z m1280 30 c0 -8 -4 -15 -10 -15 -5 0 -10 7 -10 15 0 8 5 15
10 15 6 0 10 -7 10 -15z m-1530 -30 c0 -8 -2 -15 -4 -15 -2 0 -6 7 -10 15 -3
8 -1 15 4 15 6 0 10 -7 10 -15z m310 0 c0 -8 -4 -15 -10 -15 -5 0 -10 7 -10
15 0 8 5 15 10 15 6 0 10 -7 10 -15z m1030 11 c0 -3 -4 -8 -10 -11 -5 -3 -10
-1 -10 4 0 6 5 11 10 11 6 0 10 -2 10 -4z m70 -11 c0 -8 -7 -15 -15 -15 -8 0
-15 -7 -15 -15 0 -8 7 -15 15 -15 8 0 15 -7 15 -15 0 -8 -7 -15 -15 -15 -8 0
-15 -9 -15 -20 0 -11 7 -20 15 -20 8 0 15 -7 15 -16 0 -10 7 -14 18 -12 9 2
16 9 15 15 -1 6 11 13 27 15 28 4 30 2 30 -26 l0 -31 -60 3 c-48 3 -60 1 -60
-11 0 -8 -7 -17 -15 -21 -10 -4 -15 1 -15 14 0 12 -7 20 -17 21 -11 0 -13 3
-5 6 7 3 12 23 12 49 0 28 -4 43 -10 39 -5 -3 -10 -1 -10 4 0 6 7 11 15 11 8
0 15 9 15 20 0 11 7 20 15 20 8 0 15 7 15 15 0 8 7 15 15 15 8 0 15 -7 15 -15z
m250 0 c0 -10 -10 -15 -30 -15 -20 0 -30 5 -30 15 0 10 10 15 30 15 20 0 30
-5 30 -15z m130 0 c0 -8 -8 -15 -19 -15 -14 0 -19 -8 -20 -37 -2 -63 -5 -83
-13 -83 -4 0 -8 7 -8 15 0 8 -9 15 -20 15 -11 0 -20 -7 -20 -15 0 -8 -5 -15
-10 -15 -7 0 -7 7 1 21 8 15 18 20 35 16 13 -2 24 0 24 4 0 5 -11 9 -25 9 -22
0 -25 4 -25 35 0 32 2 35 30 35 20 0 30 5 30 15 0 8 9 15 20 15 11 0 20 -7 20
-15z m-1851 -35 c0 -10 -3 -8 -9 5 -7 17 -9 17 -9 3 -1 -22 -41 -25 -41 -3 0
8 9 15 20 15 11 0 20 6 20 13 0 8 4 7 10 -3 5 -8 9 -22 9 -30z m191 6 c0 -8
14 -17 30 -21 17 -4 30 -13 30 -21 0 -8 7 -14 15 -14 8 0 15 -4 15 -10 0 -5
-6 -10 -14 -10 -9 0 -15 -14 -17 -38 l-4 -37 37 4 c34 3 38 6 38 32 0 20 5 29
16 29 11 0 14 -5 10 -16 -3 -9 -6 -33 -6 -55 0 -21 -4 -39 -10 -39 -5 0 -10 7
-10 15 0 8 -8 15 -19 15 -13 0 -20 -10 -25 -32 -3 -17 -4 -33 -1 -36 3 -3 5 2
5 11 0 10 7 17 15 17 8 0 15 -7 15 -15 0 -8 -6 -15 -14 -15 -8 0 -16 -10 -18
-22 -3 -15 -7 -5 -13 27 -8 49 -38 94 -62 95 -7 0 -13 5 -13 10 0 6 7 10 15
10 10 0 15 11 15 35 0 24 -5 35 -15 35 -8 0 -15 7 -15 15 0 8 -7 15 -15 15 -8
0 -15 7 -15 15 0 8 7 15 15 15 8 0 15 -6 15 -14z m1400 -1 c0 -8 -4 -15 -10
-15 -5 0 -10 7 -10 15 0 8 5 15 10 15 6 0 10 -7 10 -15z m-1905 -5 c3 -5 -1
-10 -9 -10 -9 0 -16 5 -16 10 0 6 4 10 9 10 6 0 13 -4 16 -10z m473 -28 c2 -7
-3 -12 -12 -12 -9 0 -16 7 -16 16 0 17 22 14 28 -4z m212 1 c0 -10 -5 -25 -10
-33 -7 -11 -10 -7 -10 18 0 17 5 32 10 32 6 0 10 -8 10 -17z m220 -3 c0 -5 -4
-10 -10 -10 -5 0 -10 5 -10 10 0 6 5 10 10 10 6 0 10 -4 10 -10z m-470 -30 c0
-5 -4 -10 -10 -10 -5 0 -10 5 -10 10 0 6 5 10 10 10 6 0 10 -4 10 -10z m340
-21 l35 -1 -30 -8 c-27 -7 -25 -8 18 -9 40 -1 47 -4 47 -21 0 -13 7 -20 20
-20 11 0 20 7 20 15 0 8 5 15 10 15 6 0 10 -7 10 -15 0 -8 8 -15 18 -16 10 0
12 -3 5 -6 -10 -3 -9 -8 2 -20 17 -16 11 -33 -11 -33 -8 0 -14 -8 -15 -17 0
-15 -2 -15 -8 2 -7 17 -9 16 -15 -12 -6 -26 -13 -33 -32 -33 -15 0 -24 6 -24
15 0 8 -6 15 -14 15 -7 0 -16 9 -19 21 -5 18 -11 20 -36 14 l-31 -7 0 51 c0
39 -4 51 -15 51 -8 0 -15 7 -15 16 0 12 6 15 23 10 12 -3 38 -6 57 -7z m97
-16 c-3 -3 -18 0 -34 6 l-28 11 28 -4 c15 -2 27 2 28 8 0 6 3 5 6 -2 3 -7 3
-16 0 -19z m-747 7 c0 -5 -4 -10 -10 -10 -5 0 -10 5 -10 10 0 6 5 10 10 10 6
0 10 -4 10 -10z m160 0 c0 -5 -7 -10 -16 -10 -8 0 -12 5 -9 10 3 6 10 10 16
10 5 0 9 -4 9 -10z m187 4 c-3 -3 -12 -4 -19 -1 -8 3 -5 6 6 6 11 1 17 -2 13
-5z m813 -34 c0 -11 -7 -20 -15 -20 -8 0 -15 9 -15 20 0 11 7 20 15 20 8 0 15
-9 15 -20z m-1030 -20 c0 -29 -2 -30 -45 -30 -43 0 -45 1 -45 30 0 29 2 30 45
30 43 0 45 -1 45 -30z m210 14 c0 -2 -11 -4 -25 -4 -14 0 -25 4 -25 9 0 4 11
6 25 3 14 -2 25 -6 25 -8z m-370 -19 c0 -8 -4 -15 -10 -15 -5 0 -10 7 -10 15
0 8 5 15 10 15 6 0 10 -7 10 -15z m-60 -5 c0 -5 -13 -10 -30 -10 -16 0 -30 5
-30 10 0 6 14 10 30 10 17 0 30 -4 30 -10z m452 -20 c-2 -16 -6 -30 -8 -30 -2
0 -4 14 -4 30 0 17 4 30 8 30 5 0 7 -13 4 -30z m1518 21 c0 -5 -7 -11 -15 -15
-9 -3 -15 0 -15 9 0 8 7 15 15 15 8 0 15 -4 15 -9z m150 5 c0 -3 -4 -8 -10
-11 -5 -3 -10 -1 -10 4 0 6 5 11 10 11 6 0 10 -2 10 -4z m-1721 -38 c0 -7 -4
-22 -9 -33 -7 -17 -9 -15 -9 13 -1 17 4 32 9 32 6 0 10 -6 9 -12z m101 2 c0
-5 -7 -10 -15 -10 -8 0 -15 5 -15 10 0 6 7 10 15 10 8 0 15 -4 15 -10z m470 6
c0 -2 -7 -6 -15 -10 -8 -3 -15 -1 -15 4 0 6 7 10 15 10 8 0 15 -2 15 -4z m280
-11 c0 -8 -7 -15 -15 -15 -8 0 -15 7 -15 15 0 8 7 15 15 15 8 0 15 -7 15 -15z
m560 -1 c0 -9 -5 -14 -12 -12 -18 6 -21 28 -4 28 9 0 16 -7 16 -16z m284 1
c-4 -8 -10 -15 -15 -15 -5 0 -9 7 -9 15 0 8 7 15 15 15 9 0 12 -6 9 -15z
m-1886 -2 c-10 -2 -26 -2 -35 0 -10 3 -2 5 17 5 19 0 27 -2 18 -5z m-58 -23
c0 -5 -4 -10 -10 -10 -5 0 -10 5 -10 10 0 6 5 10 10 10 6 0 10 -4 10 -10z
m540 -5 c0 -10 10 -15 30 -15 20 0 30 -5 30 -15 0 -11 -12 -15 -44 -15 -39 0
-45 3 -51 27 -5 21 -8 24 -16 12 -7 -12 -9 -11 -9 4 0 12 8 17 30 17 20 0 30
-5 30 -15z m234 0 c-4 -8 -8 -15 -10 -15 -2 0 -4 7 -4 15 0 8 4 15 10 15 5 0
7 -7 4 -15z m386 0 c0 -8 -4 -15 -10 -15 -5 0 -10 7 -10 15 0 8 5 15 10 15 6
0 10 -7 10 -15z m47 -7 c-3 -8 -6 -5 -6 6 -1 11 2 17 5 13 3 -3 4 -12 1 -19z
m703 18 c0 -3 -4 -8 -10 -11 -5 -3 -10 -1 -10 4 0 6 5 11 10 11 6 0 10 -2 10
-4z m-2030 -56 c0 -20 -5 -30 -15 -30 -10 0 -15 10 -15 30 0 20 5 30 15 30 10
0 15 -10 15 -30z m90 15 c0 -8 -4 -15 -10 -15 -5 0 -10 7 -10 15 0 8 5 15 10
15 6 0 10 -7 10 -15z m130 0 c0 -8 -4 -15 -10 -15 -5 0 -7 7 -4 15 4 8 8 15
10 15 2 0 4 -7 4 -15z m1310 0 c0 -8 -4 -15 -10 -15 -5 0 -10 7 -10 15 0 8 5
15 10 15 6 0 10 -7 10 -15z m60 1 c0 -8 -4 -18 -10 -21 -5 -3 -10 3 -10 14 0
12 5 21 10 21 6 0 10 -6 10 -14z m485 -9 c15 -4 14 -5 -7 -6 -21 -1 -28 4 -28
17 0 11 3 13 8 6 4 -7 16 -14 27 -17z m-1485 -22 c0 -8 -4 -15 -10 -15 -5 0
-10 7 -10 15 0 8 5 15 10 15 6 0 10 -7 10 -15z m750 0 c0 -8 -4 -15 -10 -15
-5 0 -10 7 -10 15 0 8 5 15 10 15 6 0 10 -7 10 -15z m284 0 c4 -11 -2 -15 -25
-15 -25 0 -28 2 -17 15 17 19 34 19 42 0z m-904 -45 c0 -20 -5 -30 -15 -30
-10 0 -15 10 -15 30 0 20 5 30 15 30 10 0 15 -10 15 -30z m1280 10 c0 -11 -7
-20 -15 -20 -8 0 -15 9 -15 20 0 11 7 20 15 20 8 0 15 -9 15 -20z m-1220 0 c0
-5 -4 -10 -10 -10 -5 0 -10 5 -10 10 0 6 5 10 10 10 6 0 10 -4 10 -10z m690
-25 c0 -10 -10 -15 -30 -15 -49 0 -34 24 18 29 6 0 12 -6 12 -14z m-1353 -1
c-3 -4 -2 -15 3 -24 7 -13 6 -20 -5 -24 -11 -4 -15 2 -15 24 0 17 5 30 12 30
6 0 8 -3 5 -6z m253 -4 c0 -5 -4 -10 -10 -10 -5 0 -10 5 -10 10 0 6 5 10 10
10 6 0 10 -4 10 -10z m1280 0 c0 -5 -4 -10 -10 -10 -5 0 -10 5 -10 10 0 6 5
10 10 10 6 0 10 -4 10 -10z m-990 -30 c0 -5 -7 -10 -15 -10 -8 0 -15 5 -15 10
0 6 7 10 15 10 8 0 15 -4 15 -10z m90 0 c0 -5 -7 -10 -15 -10 -8 0 -15 5 -15
10 0 6 7 10 15 10 8 0 15 -4 15 -10z m60 0 c0 -5 -4 -10 -10 -10 -5 0 -10 5
-10 10 0 6 5 10 10 10 6 0 10 -4 10 -10z m590 0 c0 -5 -4 -10 -10 -10 -5 0
-10 5 -10 10 0 6 5 10 10 10 6 0 10 -4 10 -10z m-780 -31 c0 -5 -4 -9 -10 -9
-5 0 -10 7 -10 16 0 8 5 12 10 9 6 -3 10 -10 10 -16z m470 -49 c0 -34 -15 -40
-23 -9 -3 12 -10 18 -16 14 -6 -3 -11 1 -11 9 0 10 9 16 25 16 21 0 25 -5 25
-30z m-620 -15 c0 -8 -2 -15 -4 -15 -2 0 -6 7 -10 15 -3 8 -1 15 4 15 6 0 10
-7 10 -15z m560 0 c0 -8 -4 -15 -10 -15 -5 0 -10 7 -10 15 0 8 5 15 10 15 6 0
10 -7 10 -15z m130 0 c0 -8 7 -15 15 -15 8 0 15 7 15 15 0 8 7 15 15 15 8 0
15 -7 15 -15 0 -10 10 -15 30 -15 20 0 30 -5 30 -15 0 -10 -16 -15 -62 -17
-44 -2 -62 -7 -60 -15 1 -7 -5 -13 -13 -13 -8 0 -15 7 -15 15 0 8 -7 15 -15
15 -8 0 -15 7 -15 15 0 8 7 15 15 15 8 0 15 7 15 15 0 8 7 15 15 15 8 0 15 -7
15 -15z m530 0 c0 -8 -7 -15 -15 -15 -8 0 -15 7 -15 15 0 8 7 15 15 15 8 0 15
-7 15 -15z m-1190 -30 c0 -8 -4 -15 -9 -15 -13 0 -22 16 -14 24 11 11 23 6 23
-9z m54 0 c3 -8 1 -15 -4 -15 -6 0 -10 7 -10 15 0 8 2 15 4 15 2 0 6 -7 10
-15z m-184 -30 c0 -8 -4 -15 -10 -15 -5 0 -10 7 -10 15 0 8 5 15 10 15 6 0 10
-7 10 -15z m100 -2 c0 -8 -13 -13 -30 -13 -17 0 -30 5 -30 13 0 7 13 12 30 12
17 0 30 -5 30 -12z m620 -4 c0 -5 -4 -9 -10 -9 -5 0 -10 7 -10 16 0 8 5 12 10
9 6 -3 10 -10 10 -16z m350 5 c0 -10 -13 -14 -45 -14 -62 0 -62 25 0 26 32 1
45 -2 45 -12z m90 1 c0 -8 -7 -15 -15 -15 -16 0 -20 12 -8 23 11 12 23 8 23
-8z m-30 -56 c0 -19 -5 -29 -15 -29 -8 0 -15 9 -15 20 0 12 -7 20 -16 20 -13
0 -14 3 -5 14 20 23 51 8 51 -25z m60 26 c0 -8 -7 -15 -15 -15 -9 0 -12 6 -9
15 4 8 10 15 15 15 5 0 9 -7 9 -15z m68 -2 c-5 -25 -28 -28 -28 -4 0 12 6 21
16 21 9 0 14 -7 12 -17z m-688 -3 c0 -5 -7 -10 -15 -10 -8 0 -15 5 -15 10 0 6
7 10 15 10 8 0 15 -4 15 -10z m-440 -46 c0 -45 -24 -42 -28 4 -2 24 1 32 12
32 12 0 16 -10 16 -36z m-130 16 c0 -5 -11 -10 -25 -10 -14 0 -25 5 -25 10 0
6 11 10 25 10 14 0 25 -4 25 -10z m40 -30 c0 -5 -7 -10 -15 -10 -8 0 -15 5
-15 10 0 6 7 10 15 10 8 0 15 -4 15 -10z m30 -30 c0 -5 -7 -10 -15 -10 -8 0
-15 5 -15 10 0 6 7 10 15 10 8 0 15 -4 15 -10z m47 -67 c-3 -10 -5 -2 -5 17 0
19 2 27 5 18 2 -10 2 -26 0 -35z m703 32 c0 -8 -7 -15 -15 -15 -8 0 -15 7 -15
15 0 8 7 15 15 15 8 0 15 -7 15 -15z m-1380 -45 c0 -16 -4 -30 -10 -30 -5 0
-8 13 -7 30 3 39 17 39 17 0z m60 -15 c0 -8 -4 -15 -10 -15 -5 0 -10 7 -10 15
0 8 5 15 10 15 6 0 10 -7 10 -15z m538 -5 c9 -15 19 -19 37 -14 19 5 25 2 25
-10 0 -11 -9 -16 -30 -16 -20 0 -30 5 -30 15 0 8 -7 15 -15 15 -8 0 -15 7 -15
15 0 21 13 19 28 -5z m262 -33 c21 -4 20 -4 -7 -6 -25 -1 -33 3 -33 17 0 11 3
13 8 6 4 -7 18 -14 32 -17z m1749 16 c23 -6 23 -7 5 -14 -16 -7 -17 -8 -1 -8
31 -2 19 -31 -13 -31 -27 0 -30 3 -30 30 0 32 2 33 39 23z m-2069 -38 c0 -8
-7 -15 -15 -15 -8 0 -15 -9 -15 -20 0 -13 -7 -20 -20 -20 -26 0 -25 17 3 46
25 27 47 31 47 9z m1997 -22 c3 -24 0 -33 -10 -33 -8 0 -17 -7 -21 -15 -8 -23
-33 -18 -40 7 -4 19 -8 20 -18 10 -11 -11 -10 -16 5 -26 21 -16 22 -36 2 -36
-8 0 -14 -5 -12 -12 1 -6 -6 -14 -15 -16 -14 -3 -18 3 -18 27 0 21 -5 31 -15
31 -8 0 -15 7 -15 15 0 8 -7 15 -15 15 -8 0 -15 7 -15 15 0 8 7 15 15 15 8 0
15 -7 15 -15 0 -8 7 -15 15 -15 8 0 15 9 15 20 0 16 7 20 30 20 20 0 30 -5 30
-15 0 -8 7 -15 15 -15 8 0 15 7 15 15 0 8 -4 15 -10 15 -5 0 -10 7 -10 16 0
11 8 14 27 12 22 -2 27 -9 30 -35z m-2567 17 c0 -5 -4 -10 -10 -10 -5 0 -10 5
-10 10 0 6 5 10 10 10 6 0 10 -4 10 -10z m2410 -135 c0 -24 -5 -35 -15 -35 -8
0 -15 -7 -15 -15 0 -10 10 -15 30 -15 20 0 30 -5 30 -15 0 -10 -10 -15 -30
-15 -20 0 -30 5 -30 15 0 10 -10 15 -30 15 -20 0 -30 5 -30 15 0 8 7 15 15 15
10 0 15 10 15 33 0 28 3 32 30 34 28 2 30 0 30 -32z m-100 -145 c0 -5 -4 -10
-10 -10 -5 0 -10 5 -10 10 0 6 5 10 10 10 6 0 10 -4 10 -10z m-500 -85 c0 -8
-4 -15 -10 -15 -5 0 -10 7 -10 15 0 8 5 15 10 15 6 0 10 -7 10 -15z m260 -70
c0 -10 10 -15 30 -15 20 0 30 -5 30 -15 0 -10 -10 -15 -30 -15 -20 0 -30 5
-30 15 0 8 -7 15 -15 15 -10 0 -15 -10 -15 -30 0 -23 -4 -30 -20 -30 -11 0
-20 7 -20 15 0 8 -7 15 -15 15 -10 0 -15 10 -15 30 0 29 1 30 50 30 38 0 50
-4 50 -15z m-1820 -295 c0 -20 -5 -30 -15 -30 -10 0 -15 10 -15 30 0 20 5 30
15 30 10 0 15 -10 15 -30z m0 -146 c0 -59 -23 -55 -27 4 -2 31 1 42 12 42 11
0 15 -12 15 -46z m1120 1 c0 -8 9 -15 20 -15 18 0 20 -5 18 -45 -2 -36 -7 -45
-22 -45 -15 0 -17 -6 -14 -30 4 -24 1 -30 -14 -30 -15 0 -18 -8 -18 -45 0 -33
-4 -45 -15 -45 -10 0 -15 -11 -15 -35 0 -24 -5 -35 -15 -35 -10 0 -15 -10 -15
-30 0 -20 -5 -30 -15 -30 -11 0 -15 -12 -15 -45 0 -33 -4 -45 -15 -45 -11 0
-15 -11 -16 -37 0 -37 0 -38 -16 -15 -8 12 -22 22 -29 22 -8 0 -14 5 -14 10 0
6 9 10 20 10 18 0 20 7 20 59 0 43 4 60 15 65 9 3 15 18 15 36 0 20 5 30 15
30 10 0 15 10 15 30 0 20 5 30 15 30 11 0 15 12 15 45 0 33 4 45 15 45 10 0
15 11 15 35 0 26 3 33 15 29 12 -5 15 4 15 45 0 28 5 51 10 51 6 0 10 -7 10
-15z m-1090 -90 c0 -25 -4 -45 -10 -45 -5 0 -10 20 -10 45 0 25 5 45 10 45 6
0 10 -20 10 -45z m970 -30 c0 -25 -4 -45 -10 -45 -11 0 -14 73 -3 83 11 12 13
8 13 -38z m-910 25 c0 -5 -4 -10 -10 -10 -5 0 -10 5 -10 10 0 6 5 10 10 10 6
0 10 -4 10 -10z m487 -37 c-3 -10 -5 -2 -5 17 0 19 2 27 5 18 2 -10 2 -26 0
-35z m-455 -23 c2 -28 0 -40 -9 -40 -8 0 -13 14 -13 40 0 22 4 40 9 40 5 0 11
-18 13 -40z m1210 -30 c-2 -22 -6 -40 -8 -40 -2 0 -4 18 -4 40 0 22 3 40 8 40
4 0 6 -18 4 -40z m-1272 -20 c0 -20 5 -30 15 -30 8 0 15 -7 15 -15 0 -8 -6
-14 -12 -12 -8 1 -14 -11 -16 -30 -6 -63 -22 -32 -22 42 0 43 4 75 10 75 6 0
10 -13 10 -30z m500 20 c0 -5 -4 -10 -10 -10 -5 0 -10 5 -10 10 0 6 5 10 10
10 6 0 10 -4 10 -10z m410 -30 c0 -5 -4 -10 -10 -10 -5 0 -10 5 -10 10 0 6 5
10 10 10 6 0 10 -4 10 -10z m-440 -30 c0 -5 -4 -10 -10 -10 -5 0 -10 5 -10 10
0 6 5 10 10 10 6 0 10 -4 10 -10z m410 0 c0 -5 -4 -10 -9 -10 -6 0 -13 5 -16
10 -3 6 1 10 9 10 9 0 16 -4 16 -10z m362 -20 c-2 -16 -6 -30 -8 -30 -2 0 -4
14 -4 30 0 17 4 30 8 30 5 0 7 -13 4 -30z m418 0 c0 -16 -2 -30 -4 -30 -2 0
-6 14 -8 30 -3 17 -1 30 4 30 4 0 8 -13 8 -30z m500 -15 c0 -43 1 -45 30 -45
29 0 30 -1 30 -51 0 -31 -4 -48 -10 -44 -6 3 -13 -1 -16 -9 -3 -9 -12 -16 -19
-16 -9 0 -14 22 -17 72 -2 44 -9 73 -16 76 -18 6 -15 62 3 62 11 0 15 -12 15
-45z m-1720 -30 c0 -8 -4 -15 -10 -15 -5 0 -7 7 -4 15 4 8 8 15 10 15 2 0 4
-7 4 -15z m440 0 c0 -8 -7 -15 -15 -15 -8 0 -15 7 -15 15 0 8 7 15 15 15 8 0
15 -7 15 -15z m-30 -40 c0 -8 -7 -15 -15 -15 -8 0 -15 7 -15 15 0 8 7 15 15
15 8 0 15 -7 15 -15z m365 5 c3 -5 1 -10 -4 -10 -6 0 -11 5 -11 10 0 6 2 10 4
10 3 0 8 -4 11 -10z m-775 -30 c0 -5 -2 -10 -4 -10 -3 0 -8 5 -11 10 -3 6 -1
10 4 10 6 0 11 -4 11 -10z m407 -6 c-3 -3 -12 -4 -19 -1 -8 3 -5 6 6 6 11 1
17 -2 13 -5z m-437 -39 c0 -14 -3 -25 -7 -25 -5 0 -8 11 -8 25 0 14 3 25 8 25
4 0 7 -11 7 -25z m780 15 c0 -5 -4 -10 -10 -10 -5 0 -10 5 -10 10 0 6 5 10 10
10 6 0 10 -4 10 -10z m1250 0 c0 -5 -4 -10 -10 -10 -5 0 -10 5 -10 10 0 6 5
10 10 10 6 0 10 -4 10 -10z m-1628 -45 c-2 -14 -8 -25 -13 -25 -5 0 -9 11 -9
25 0 14 6 25 14 25 9 0 12 -8 8 -25z m778 15 c0 -5 -4 -10 -10 -10 -5 0 -10 5
-10 10 0 6 5 10 10 10 6 0 10 -4 10 -10z m880 0 c0 -5 -4 -10 -10 -10 -5 0
-10 5 -10 10 0 6 5 10 10 10 6 0 10 -4 10 -10z m-2093 -26 c-3 -3 -12 -4 -19
-1 -8 3 -5 6 6 6 11 1 17 -2 13 -5z m1178 -34 c-3 -56 -12 -60 -12 -5 0 25 3
45 7 45 4 0 6 -18 5 -40z m697 10 c-4 -26 -1 -30 18 -30 19 0 21 -5 19 -42 -4
-76 0 -118 13 -115 6 1 14 -6 16 -15 2 -11 -2 -18 -12 -18 -9 0 -16 -7 -16
-15 0 -28 -28 -15 -35 16 -5 23 -9 28 -16 18 -7 -11 -9 -10 -9 4 0 9 -7 17
-15 17 -12 0 -15 10 -13 40 1 22 6 40 11 40 5 0 7 -15 5 -34 -3 -30 -2 -33 17
-26 25 9 35 70 11 70 -9 0 -16 7 -16 15 0 8 -7 15 -15 15 -11 0 -15 12 -15 45
0 43 1 45 28 45 26 0 28 -3 24 -30z m248 20 c0 -5 -4 -10 -10 -10 -5 0 -10 5
-10 10 0 6 5 10 10 10 6 0 10 -4 10 -10z m220 0 c0 -5 -4 -10 -10 -10 -5 0
-10 5 -10 10 0 6 5 10 10 10 6 0 10 -4 10 -10z m-1940 -29 c0 -6 -4 -13 -10
-16 -5 -3 -10 1 -10 9 0 9 5 16 10 16 6 0 10 -4 10 -9z m-453 -68 c-3 -10 -5
-2 -5 17 0 19 2 27 5 18 2 -10 2 -26 0 -35z m523 32 c0 -8 7 -15 15 -15 8 0
15 -7 15 -15 0 -8 -7 -15 -15 -15 -8 0 -15 7 -15 15 0 8 -7 15 -15 15 -8 0
-15 7 -15 15 0 8 7 15 15 15 8 0 15 -7 15 -15z m280 -15 c0 -22 -5 -30 -17
-30 -14 0 -15 2 -4 9 8 5 12 18 8 30 -3 12 -1 21 4 21 5 0 9 -13 9 -30z m2090
15 c0 -8 -4 -15 -10 -15 -5 0 -10 7 -10 15 0 8 5 15 10 15 6 0 10 -7 10 -15z
m-3400 -30 c0 -8 -7 -15 -15 -15 -8 0 -15 7 -15 15 0 8 7 15 15 15 8 0 15 -7
15 -15z m1650 0 c0 -8 -4 -15 -10 -15 -5 0 -10 7 -10 15 0 8 5 15 10 15 6 0
10 -7 10 -15z m720 0 c0 -8 -4 -15 -10 -15 -5 0 -10 7 -10 15 0 8 5 15 10 15
6 0 10 -7 10 -15z m-2310 -30 c0 -8 -7 -15 -15 -15 -8 0 -15 7 -15 15 0 8 7
15 15 15 8 0 15 -7 15 -15z m1560 -20 c0 -14 -3 -25 -7 -25 -5 0 -8 11 -8 25
0 14 3 25 8 25 4 0 7 -11 7 -25z m-1138 -30 c3 -14 1 -25 -3 -25 -5 0 -9 11
-9 25 0 14 2 25 4 25 2 0 6 -11 8 -25z m578 15 c0 -5 -7 -10 -15 -10 -8 0 -15
5 -15 10 0 6 7 10 15 10 8 0 15 -4 15 -10z m220 6 c0 -2 -7 -6 -15 -10 -8 -3
-15 -1 -15 4 0 6 7 10 15 10 8 0 15 -2 15 -4z m395 -6 c3 -5 1 -10 -4 -10 -6
0 -11 5 -11 10 0 6 2 10 4 10 3 0 8 -4 11 -10z m-85 -45 c0 -14 -3 -25 -7 -25
-5 0 -8 11 -8 25 0 14 3 25 8 25 4 0 7 -11 7 -25z m-313 9 c-3 -3 -12 -4 -19
-1 -8 3 -5 6 6 6 11 1 17 -2 13 -5z m-1184 -33 c2 -10 1 -25 -4 -32 -8 -12
-12 -11 -23 4 -14 19 -36 23 -36 7 0 -5 -7 -10 -15 -10 -9 0 -15 9 -15 25 0
23 4 25 44 25 34 0 45 -4 49 -19z m807 9 c0 -5 -4 -10 -10 -10 -5 0 -10 5 -10
10 0 6 5 10 10 10 6 0 10 -4 10 -10z m335 -15 c0 -14 -3 -25 -7 -25 -5 0 -8
11 -8 25 0 14 3 25 8 25 4 0 7 -11 7 -25z m2325 15 c0 -5 -7 -10 -15 -10 -8 0
-15 5 -15 10 0 6 7 10 15 10 8 0 15 -4 15 -10z m-1160 -30 c0 -5 -4 -10 -10
-10 -5 0 -10 5 -10 10 0 6 5 10 10 10 6 0 10 -4 10 -10z m87 -20 c-1 -11 -5
-20 -9 -20 -10 0 -10 4 -2 24 8 22 13 20 11 -4z m-2367 -25 c0 -19 -4 -35 -10
-35 -11 0 -14 53 -3 63 11 12 13 8 13 -28z m302 -5 c-2 -16 -6 -30 -8 -30 -2
0 -4 14 -4 30 0 17 4 30 8 30 5 0 7 -13 4 -30z m568 -15 c0 -8 -4 -15 -10 -15
-5 0 -10 7 -10 15 0 8 5 15 10 15 6 0 10 -7 10 -15z m-930 -45 c0 -20 -5 -30
-15 -30 -10 0 -15 10 -15 30 0 20 5 30 15 30 10 0 15 -10 15 -30z m870 0 c0
-16 -4 -30 -10 -30 -5 0 -10 14 -10 30 0 17 5 30 10 30 6 0 10 -13 10 -30z
m690 15 c0 -8 -4 -15 -10 -15 -5 0 -10 7 -10 15 0 8 5 15 10 15 6 0 10 -7 10
-15z m-136 -30 c3 -8 1 -15 -4 -15 -6 0 -10 7 -10 15 0 8 2 15 4 15 2 0 6 -7
10 -15z m-1084 -20 c0 -14 -4 -25 -9 -25 -4 0 -6 11 -3 25 2 14 6 25 8 25 2 0
4 -11 4 -25z m440 15 c0 -5 -7 -10 -16 -10 -8 0 -12 5 -9 10 3 6 10 10 16 10
5 0 9 -4 9 -10z m-720 -30 c0 -5 -4 -10 -10 -10 -5 0 -10 5 -10 10 0 6 5 10
10 10 6 0 10 -4 10 -10z m780 -15 c0 -14 -4 -25 -10 -25 -5 0 -10 11 -10 25 0
14 5 25 10 25 6 0 10 -11 10 -25z m-810 -15 c0 -5 -7 -10 -15 -10 -8 0 -15 5
-15 10 0 6 7 10 15 10 8 0 15 -4 15 -10z m280 -15 c0 -14 -3 -25 -7 -25 -5 0
-8 11 -8 25 0 14 3 25 8 25 4 0 7 -11 7 -25z m1090 0 c0 -14 -4 -25 -10 -25
-5 0 -10 11 -10 25 0 14 5 25 10 25 6 0 10 -11 10 -25z m-1310 -30 c0 -24 5
-35 15 -35 8 0 15 -3 15 -7 0 -5 3 -18 6 -30 6 -20 3 -23 -24 -23 -28 0 -30 3
-36 50 -5 34 -11 50 -21 50 -16 0 -20 12 -8 23 3 4 17 7 30 7 20 0 23 -5 23
-35z m190 -15 c0 -5 -5 -10 -11 -10 -5 0 -7 5 -4 10 3 6 8 10 11 10 2 0 4 -4
4 -10z m440 -30 c0 -5 -7 -10 -15 -10 -8 0 -15 5 -15 10 0 6 7 10 15 10 8 0
15 -4 15 -10z m-40 -29 c0 -6 -4 -13 -10 -16 -5 -3 -10 1 -10 9 0 9 5 16 10
16 6 0 10 -4 10 -9z m100 -6 c0 -8 -4 -15 -10 -15 -5 0 -10 7 -10 15 0 8 5 15
10 15 6 0 10 -7 10 -15z m190 0 c0 -10 -10 -15 -30 -15 -20 0 -30 5 -30 15 0
10 10 15 30 15 20 0 30 -5 30 -15z m120 0 c0 -8 -4 -15 -10 -15 -5 0 -10 7
-10 15 0 8 5 15 10 15 6 0 10 -7 10 -15z m100 -14 c0 -17 -5 -33 -11 -37 -8
-4 -7 -9 2 -15 11 -7 10 -9 -3 -9 -10 0 -18 7 -18 15 0 8 -7 15 -15 15 -8 0
-15 7 -15 15 0 8 7 15 15 15 8 0 15 7 15 15 0 8 7 15 15 15 10 0 15 -10 15
-29z m366 4 c-5 -18 -2 -25 8 -25 8 0 17 6 19 13 3 7 6 5 6 -5 1 -13 -7 -18
-24 -18 -21 0 -25 5 -25 30 0 17 5 30 11 30 7 0 9 -10 5 -25z m1384 10 c0 -8
-9 -15 -21 -15 -18 0 -20 -5 -17 -47 2 -36 7 -49 21 -51 12 -2 17 3 17 17 0
14 5 19 15 15 9 -4 15 -19 15 -35 0 -26 4 -29 30 -29 29 0 30 -2 30 -45 0 -35
-3 -43 -15 -39 -10 4 -15 0 -15 -15 0 -12 6 -21 15 -21 8 0 15 -7 15 -15 0 -8
7 -15 15 -15 8 0 15 -7 15 -15 0 -8 -7 -15 -15 -15 -8 0 -15 -7 -15 -15 0 -8
-7 -15 -15 -15 -9 0 -12 6 -9 15 4 10 0 15 -15 15 -12 0 -21 6 -21 15 0 8 7
15 15 15 8 0 15 7 15 15 0 8 -7 15 -15 15 -11 0 -15 12 -15 45 0 33 -4 45 -15
45 -8 0 -15 -7 -15 -15 0 -8 -7 -15 -15 -15 -8 0 -15 -7 -15 -15 0 -10 -11
-15 -35 -15 -24 0 -35 5 -35 15 0 8 -4 15 -9 15 -6 0 -11 15 -13 32 -2 22 -9
34 -20 36 -14 3 -18 -4 -18 -31 0 -32 -2 -33 -30 -29 -23 3 -30 0 -30 -12 0
-13 -11 -16 -57 -15 -44 1 -52 3 -33 9 l25 8 -27 1 c-16 1 -28 -3 -28 -9 0 -5
-16 -10 -35 -10 -33 0 -35 -2 -35 -35 0 -44 -18 -46 -22 -3 -4 38 -38 55 -38
19 0 -12 -6 -21 -15 -21 -8 0 -15 9 -15 20 0 13 -7 20 -20 20 -11 0 -20 5 -20
10 0 6 -7 10 -15 10 -8 0 -15 5 -15 10 0 6 -3 10 -8 10 -4 0 -7 -17 -6 -37 1
-33 1 -34 -3 -5 -3 19 -10 32 -19 32 -8 0 -14 10 -14 25 0 14 5 25 10 25 6 0
10 -7 10 -15 0 -8 9 -15 20 -15 16 0 20 7 20 30 l0 30 60 0 c47 0 60 -3 60
-15 0 -8 9 -15 20 -15 13 0 20 7 20 20 0 14 -7 20 -22 20 -14 0 -18 4 -13 9
16 15 145 18 145 4 0 -7 -7 -13 -15 -13 -8 0 -15 -9 -15 -20 0 -13 7 -20 20
-20 11 0 20 7 20 15 0 8 7 15 15 15 10 0 15 10 15 30 0 27 3 30 31 30 22 0 32
5 36 20 8 30 21 24 25 -12 2 -24 8 -32 27 -35 13 -2 29 -11 36 -20 17 -22 35
-8 35 28 0 19 -5 29 -15 29 -8 0 -15 7 -15 15 0 8 7 15 15 15 8 0 15 7 15 15
0 10 10 15 30 15 20 0 30 -5 30 -15z m150 0 c0 -9 -9 -15 -24 -15 -13 0 -26 7
-30 15 -4 11 2 15 24 15 20 0 30 -5 30 -15z m-2810 -30 c0 -8 9 -15 20 -15 11
0 20 7 20 15 0 8 4 15 9 15 6 0 11 -21 13 -47 2 -35 7 -48 18 -48 11 0 16 13
18 48 4 68 21 58 24 -15 2 -50 6 -63 21 -66 10 -2 17 3 17 12 0 9 7 16 15 16
8 0 15 -7 15 -15 0 -10 10 -15 30 -15 20 0 30 -5 30 -15 0 -10 10 -15 30 -15
25 0 30 -4 30 -24 0 -13 -7 -26 -15 -30 -8 -3 -15 -12 -15 -21 0 -8 -7 -15
-15 -15 -8 0 -15 -7 -15 -15 0 -8 -4 -15 -10 -15 -5 0 -10 7 -10 15 0 8 -9 15
-20 15 -11 0 -20 -7 -20 -15 0 -9 -9 -15 -21 -15 -18 0 -21 -5 -17 -30 5 -30
4 -30 -44 -30 l-48 0 0 -35 c0 -24 5 -35 15 -35 8 0 15 -8 14 -17 0 -11 -3
-13 -6 -6 -8 21 -35 -14 -28 -36 3 -11 1 -22 -5 -26 -6 -4 -10 7 -10 29 0 29
-4 36 -20 36 -16 0 -20 -7 -20 -35 l0 -35 -60 0 c-53 0 -60 2 -60 20 0 12 -7
20 -16 20 -11 0 -15 6 -11 19 3 14 0 17 -14 14 -13 -4 -19 0 -19 11 0 9 -7 16
-15 16 -8 0 -15 7 -15 15 0 8 -9 15 -21 15 -11 0 -17 5 -14 10 3 6 24 10 47
10 40 0 40 0 36 -33 -3 -30 -1 -33 16 -29 15 4 18 1 14 -15 -4 -16 -1 -19 18
-15 27 5 34 42 9 42 -9 0 -15 9 -15 25 0 16 6 25 15 25 8 0 15 6 15 14 0 7 9
16 20 19 11 3 20 12 20 21 0 9 -8 16 -20 16 -11 0 -20 7 -20 15 0 8 -7 15 -15
15 -10 0 -15 10 -15 30 0 19 5 30 14 30 8 0 14 -6 13 -12 -1 -41 4 -48 33 -48
23 0 30 -4 30 -20 0 -16 7 -20 30 -20 20 0 30 -5 30 -15 0 -8 9 -15 20 -15 17
0 20 7 20 50 0 28 5 50 10 50 6 0 10 -7 10 -15 0 -11 12 -15 50 -15 l50 0 0
35 c0 36 -21 49 -37 22 -4 -8 -18 -16 -30 -19 -19 -5 -22 -1 -25 25 -4 36 -27
48 -35 19 -4 -17 -11 -20 -34 -15 -28 5 -29 4 -29 -31 0 -20 -4 -36 -10 -36
-5 0 -10 7 -10 16 0 9 -9 18 -20 21 -11 3 -20 12 -20 19 0 8 -7 14 -15 14 -8
0 -15 7 -15 15 0 8 -7 15 -15 15 -9 0 -18 -7 -21 -15 -11 -28 -24 -15 -24 25
0 29 4 40 15 40 8 0 15 9 15 21 0 12 4 17 11 14 6 -4 13 2 16 14 4 15 13 21
34 21 19 0 29 5 29 15 0 8 7 15 15 15 8 0 15 -7 15 -15z m780 0 c0 -8 -7 -15
-15 -15 -8 0 -15 7 -15 15 0 8 7 15 15 15 8 0 15 -7 15 -15z m2090 0 c0 -8 -4
-15 -10 -15 -5 0 -10 7 -10 15 0 8 5 15 10 15 6 0 10 -7 10 -15z m-2337 -36
c3 -12 10 -18 16 -14 7 3 11 -2 11 -14 0 -14 6 -21 20 -21 16 0 20 7 20 35 0
38 14 47 23 15 4 -15 14 -20 36 -20 21 0 31 -5 31 -15 0 -22 27 -18 33 5 4 17
10 20 32 14 21 -5 27 -3 32 15 9 33 23 25 23 -14 0 -24 5 -35 15 -35 8 0 15
-4 15 -10 0 -5 -7 -10 -15 -10 -8 0 -15 -9 -15 -20 0 -11 7 -20 15 -20 8 0 15
-7 15 -15 0 -8 9 -15 20 -15 18 0 30 -20 13 -20 -5 0 -18 -3 -30 -6 -19 -5
-23 -2 -23 15 0 19 -6 21 -50 21 -27 0 -50 5 -50 10 0 6 -7 10 -15 10 -8 0
-15 9 -15 20 0 11 -7 20 -15 20 -8 0 -15 -9 -15 -20 0 -11 7 -20 15 -20 8 0
15 -7 15 -15 0 -8 -4 -15 -10 -15 -5 0 -11 -12 -11 -27 l-1 -28 -7 30 c-6 30
-36 43 -36 16 0 -24 -22 -23 -28 0 -5 17 -11 20 -31 17 -18 -4 -26 0 -29 14
-7 24 -37 23 -37 -2 0 -13 -5 -18 -15 -14 -8 4 -15 17 -15 29 0 19 6 24 32 27
22 2 34 9 36 21 3 14 -4 17 -32 17 -33 0 -36 2 -36 30 0 26 3 30 29 30 21 0
30 -6 34 -21z m187 6 c0 -8 -7 -15 -15 -15 -8 0 -15 7 -15 15 0 8 7 15 15 15
8 0 15 -7 15 -15z m250 0 c0 -8 -7 -15 -15 -15 -8 0 -15 7 -15 15 0 8 7 15 15
15 8 0 15 -7 15 -15z m187 -5 c3 -11 12 -20 19 -20 8 0 14 -7 14 -15 0 -8 7
-15 15 -15 8 0 15 7 15 15 0 8 7 15 15 15 10 0 15 -10 15 -30 0 -27 3 -30 30
-30 27 0 30 -3 30 -30 0 -27 3 -30 31 -30 27 0 29 -2 15 -15 -8 -8 -19 -15
-25 -15 -6 0 -11 -7 -11 -15 0 -8 5 -15 10 -15 6 0 10 -13 10 -30 0 -16 -4
-30 -10 -30 -5 0 -10 7 -10 16 0 13 -11 15 -57 14 -97 -4 -100 -3 -106 30 -5
21 -12 30 -27 30 -12 0 -20 -7 -21 -17 -1 -17 -2 -17 -6 0 -3 11 -14 17 -34
17 -19 0 -29 5 -29 15 0 8 7 15 15 15 8 0 15 7 15 15 0 8 7 15 15 15 8 0 15 9
15 20 0 16 -7 20 -30 20 -16 0 -30 5 -30 10 0 6 14 10 30 10 24 0 30 4 30 21
0 12 4 17 11 14 6 -4 13 2 16 14 7 27 23 27 30 1z m1843 5 c0 -8 -7 -15 -16
-15 -14 0 -14 3 -4 15 7 8 14 15 16 15 2 0 4 -7 4 -15z m-780 -5 c0 -5 -7 -10
-15 -10 -8 0 -15 5 -15 10 0 6 7 10 15 10 8 0 15 -4 15 -10z m680 0 c0 -5 -4
-10 -10 -10 -5 0 -10 5 -10 10 0 6 5 10 10 10 6 0 10 -4 10 -10z m-3060 -25
c0 -8 -4 -15 -10 -15 -5 0 -10 7 -10 15 0 8 5 15 10 15 6 0 10 -7 10 -15z
m3034 0 c3 -9 0 -15 -9 -15 -8 0 -15 7 -15 15 0 8 4 15 9 15 5 0 11 -7 15 -15z
m-2004 -5 c0 -5 -4 -10 -10 -10 -5 0 -10 5 -10 10 0 6 5 10 10 10 6 0 10 -4
10 -10z m2100 0 c0 -5 -7 -10 -15 -10 -8 0 -15 -7 -15 -15 0 -10 -10 -15 -30
-15 -16 0 -30 5 -30 10 0 6 7 10 15 10 8 0 15 7 15 15 0 10 10 15 30 15 17 0
30 -4 30 -10z m-2500 -30 c0 -5 -7 -10 -15 -10 -8 0 -15 5 -15 10 0 6 7 10 15
10 8 0 15 -4 15 -10z m530 -1 c0 -5 -20 -9 -45 -9 -59 0 -59 15 0 16 25 1 45
-2 45 -7z m-120 -29 c0 -5 -7 -10 -15 -10 -8 0 -15 5 -15 10 0 6 7 10 15 10 8
0 15 -4 15 -10z m2150 -21 c0 -19 -4 -28 -11 -24 -6 4 -13 -2 -16 -14 -3 -12
-12 -21 -19 -21 -8 0 -14 -7 -14 -15 0 -8 -7 -15 -15 -15 -8 0 -15 -7 -15 -15
0 -14 14 -19 48 -18 7 1 12 -11 12 -28 0 -26 -4 -29 -30 -29 -20 0 -30 5 -30
15 0 10 -11 15 -35 15 -24 0 -35 -5 -35 -15 0 -8 -4 -15 -10 -15 -5 0 -10 14
-10 30 0 20 5 30 15 30 8 0 15 7 15 15 0 8 7 15 15 15 11 0 15 12 15 44 0 43
1 45 33 48 19 2 31 8 30 16 -2 7 8 12 27 12 27 0 30 -3 30 -31z m60 16 c0 -8
7 -15 15 -15 8 0 15 -6 15 -12 0 -7 -11 -13 -25 -13 -21 0 -25 5 -25 28 0 15
5 27 10 27 6 0 10 -7 10 -15z m-2102 -22 c-10 -2 -26 -2 -35 0 -10 3 -2 5 17
5 19 0 27 -2 18 -5z m412 -3 c0 -5 -4 -10 -10 -10 -5 0 -10 5 -10 10 0 6 5 10
10 10 6 0 10 -4 10 -10z m-422 -28 c2 -7 -6 -12 -17 -12 -21 0 -27 11 -14 24
9 9 26 2 31 -12z m19 -4 c-3 -8 -6 -5 -6 6 -1 11 2 17 5 13 3 -3 4 -12 1 -19z
m1533 8 c0 -3 -4 -8 -10 -11 -5 -3 -10 -1 -10 4 0 6 5 11 10 11 6 0 10 -2 10
-4z m30 -42 c0 -8 -4 -14 -10 -14 -5 0 -10 9 -10 21 0 11 5 17 10 14 6 -3 10
-13 10 -21z m-1530 1 c0 -8 -4 -15 -10 -15 -5 0 -10 7 -10 15 0 8 5 15 10 15
6 0 10 -7 10 -15z m370 7 c0 -4 -12 -8 -27 -9 -24 -1 -25 -1 -8 7 26 11 35 12
35 2z m735 -22 c8 0 15 -13 17 -32 3 -32 4 -33 48 -32 24 1 46 6 48 13 5 14
32 15 32 1 0 -5 -7 -10 -15 -10 -10 0 -15 -11 -15 -35 0 -24 5 -35 15 -35 8 0
15 -4 15 -10 0 -5 -7 -10 -15 -10 -8 0 -15 -7 -15 -15 0 -8 -7 -15 -15 -15 -8
0 -15 -9 -15 -20 0 -13 -5 -18 -15 -14 -23 9 -19 51 6 57 24 6 21 30 -4 35
-10 2 -17 -3 -17 -12 0 -12 -11 -16 -45 -16 -33 0 -45 4 -45 15 0 8 -9 15 -20
15 -11 0 -20 -7 -20 -15 0 -8 -7 -15 -15 -15 -10 0 -15 -10 -15 -29 0 -17 -5
-33 -12 -37 -8 -5 -9 3 -5 27 3 19 3 28 0 22 -5 -15 -43 -18 -43 -4 0 5 9 11
21 14 12 3 18 10 15 15 -3 5 3 12 14 15 11 3 20 12 20 21 0 12 -10 16 -35 16
-44 0 -46 18 -2 22 28 3 32 7 35 36 4 43 22 41 22 -3 0 -28 4 -35 20 -35 15 0
20 7 20 28 0 39 13 82 18 60 2 -10 10 -18 17 -18z m365 20 c0 -5 -2 -10 -4
-10 -3 0 -8 5 -11 10 -3 6 -1 10 4 10 6 0 11 -4 11 -10z m280 -5 c0 -8 -4 -15
-10 -15 -5 0 -10 7 -10 15 0 8 5 15 10 15 6 0 10 -7 10 -15z m310 0 c0 -8 -7
-15 -15 -15 -13 0 -21 -25 -16 -52 0 -5 -3 -8 -9 -8 -5 0 -10 14 -10 30 0 20
-5 30 -15 30 -8 0 -15 7 -15 15 0 11 11 15 40 15 29 0 40 -4 40 -15z m-2780
-45 c0 -27 -3 -30 -32 -29 -33 0 -33 0 -10 16 12 8 22 22 22 29 0 8 5 14 10
14 6 0 10 -13 10 -30z m780 15 c0 -8 -4 -15 -10 -15 -5 0 -10 7 -10 15 0 8 5
15 10 15 6 0 10 -7 10 -15z m1297 -7 c-3 -8 -6 -5 -6 6 -1 11 2 17 5 13 3 -3
4 -12 1 -19z m453 7 c0 -8 -4 -15 -10 -15 -5 0 -10 7 -10 15 0 8 5 15 10 15 6
0 10 -7 10 -15z m-410 -5 c0 -5 -7 -10 -15 -10 -8 0 -15 5 -15 10 0 6 7 10 15
10 8 0 15 -4 15 -10z m100 0 c0 -5 -4 -10 -10 -10 -5 0 -10 5 -10 10 0 6 5 10
10 10 6 0 10 -4 10 -10z m-2027 -31 c3 -12 10 -18 16 -14 7 3 11 -2 11 -14 0
-10 6 -22 13 -24 6 -3 -3 -3 -20 0 -21 3 -33 1 -33 -6 0 -6 16 -11 35 -11 19
0 35 5 35 10 0 6 9 10 20 10 11 0 20 7 20 15 0 17 18 19 40 4 12 -8 11 -9 -6
-4 -18 5 -21 2 -16 -20 4 -22 1 -25 -22 -25 -14 0 -26 -4 -26 -10 0 -5 -9 -10
-20 -10 -13 0 -20 -7 -20 -20 0 -13 7 -20 20 -20 12 0 20 7 20 18 0 14 2 15
10 2 8 -13 10 -13 10 1 0 9 7 19 15 23 8 3 15 1 15 -4 0 -6 9 -10 21 -10 23 0
21 -24 -2 -26 -8 0 -22 -2 -31 -2 -10 -1 -18 -9 -18 -17 0 -19 0 -19 -38 1
-18 8 -32 22 -32 30 0 8 -8 14 -17 14 -10 0 -28 3 -40 6 -18 5 -23 2 -23 -13
0 -14 11 -24 33 -31 l32 -11 -32 5 c-20 3 -33 1 -33 -5 0 -6 -13 -11 -30 -11
-27 0 -30 3 -30 30 0 20 5 30 15 30 10 0 15 10 15 30 0 20 5 30 15 30 8 0 15
-7 15 -16 0 -9 7 -14 18 -12 13 3 16 12 14 38 -4 56 19 85 31 39z m2829 7 c6
13 7 10 3 -9 -5 -26 -4 -28 16 -22 18 6 20 4 15 -13 -9 -28 3 -72 20 -72 8 0
14 -7 14 -16 0 -14 -1 -14 -16 0 -18 18 -24 19 -44 6 -10 -6 -11 -10 -2 -10 6
0 12 -9 12 -21 0 -11 5 -17 10 -14 6 3 10 -3 10 -14 0 -12 -7 -21 -15 -21 -12
0 -15 -13 -15 -60 0 -57 -1 -60 -25 -60 -27 0 -34 15 -10 24 10 4 15 20 15 51
0 25 5 45 10 45 6 0 10 7 10 15 0 8 -4 15 -10 15 -5 0 -10 -7 -10 -15 0 -8 -9
-15 -20 -15 -16 0 -20 -7 -20 -30 0 -20 -5 -30 -15 -30 -10 0 -15 -10 -15 -30
0 -16 -4 -30 -10 -30 -5 0 -10 3 -9 8 1 4 -2 17 -6 30 -5 16 -15 22 -36 22
-19 0 -29 5 -29 15 0 8 -7 15 -15 15 -8 0 -15 7 -15 15 0 8 -7 15 -15 15 -8 0
-15 7 -15 15 0 8 7 16 15 16 28 3 33 4 41 12 4 4 -1 7 -12 8 -12 0 -6 6 16 14
22 8 28 14 16 14 -43 2 -2 14 49 15 46 1 55 -2 55 -16 0 -11 8 -18 20 -18 11
0 20 7 20 15 0 8 7 15 15 15 10 0 15 11 15 35 0 24 -5 35 -15 35 -8 0 -15 7
-15 15 0 8 -7 15 -15 15 -8 0 -15 7 -15 16 0 14 2 13 17 -2 16 -15 17 -15 25
2z m-2682 0 c0 -3 -4 -8 -10 -11 -5 -3 -10 -1 -10 4 0 6 5 11 10 11 6 0 10 -2
10 -4z m70 -31 c0 -8 -7 -15 -15 -15 -26 0 -18 20 13 29 1 1 2 -6 2 -14z m60
-5 c0 -5 -4 -10 -10 -10 -5 0 -10 5 -10 10 0 6 5 10 10 10 6 0 10 -4 10 -10z
m590 0 c0 -5 -4 -10 -10 -10 -5 0 -10 5 -10 10 0 6 5 10 10 10 6 0 10 -4 10
-10z m1733 3 c-17 -3 -23 -13 -26 -41 l-4 -37 -1 43 c-2 40 -1 42 26 41 22 -1
23 -2 5 -6z m77 -3 c0 -5 -4 -10 -10 -10 -5 0 -10 5 -10 10 0 6 5 10 10 10 6
0 10 -4 10 -10z m-340 -31 c0 -5 -4 -9 -10 -9 -5 0 -10 7 -10 16 0 8 5 12 10
9 6 -3 10 -10 10 -16z m276 -67 c-11 -10 -13 3 -7 48 l6 45 3 -44 c2 -23 1
-46 -2 -49z m162 58 c-2 -6 -8 -6 -18 0 -13 9 -13 11 0 20 15 10 25 0 18 -20z
m-2898 10 c0 -5 -7 -10 -15 -10 -8 0 -15 5 -15 10 0 6 7 10 15 10 8 0 15 -4
15 -10z m430 0 c0 -5 -4 -10 -10 -10 -5 0 -10 5 -10 10 0 6 5 10 10 10 6 0 10
-4 10 -10z m470 0 c0 -5 -4 -10 -10 -10 -5 0 -10 5 -10 10 0 6 5 10 10 10 6 0
10 -4 10 -10z m1090 0 c0 -5 -4 -10 -10 -10 -5 0 -10 5 -10 10 0 6 5 10 10 10
6 0 10 -4 10 -10z m1030 0 c0 -5 -7 -10 -15 -10 -8 0 -15 5 -15 10 0 6 7 10
15 10 8 0 15 -4 15 -10z m-2710 -25 c0 -8 -7 -15 -15 -15 -8 0 -15 7 -15 15 0
8 7 15 15 15 8 0 15 -7 15 -15z m60 0 c0 -8 -4 -15 -10 -15 -5 0 -10 7 -10 15
0 8 5 15 10 15 6 0 10 -7 10 -15z m-1030 -5 c0 -5 -7 -10 -15 -10 -8 0 -15 5
-15 10 0 6 7 10 15 10 8 0 15 -4 15 -10z m410 0 c0 -5 -7 -10 -15 -10 -8 0
-15 5 -15 10 0 6 7 10 15 10 8 0 15 -4 15 -10z m710 -2 c0 6 9 12 21 12 11 0
17 -5 14 -10 -3 -6 0 -13 9 -16 8 -3 18 -19 21 -35 4 -16 13 -29 21 -29 8 0
14 -7 14 -15 0 -8 7 -15 15 -15 8 0 15 -7 15 -15 0 -10 -10 -15 -30 -15 -19 0
-30 -5 -30 -14 0 -7 -9 -16 -21 -19 -12 -3 -18 -10 -14 -16 4 -7 -5 -11 -24
-11 l-31 0 0 60 c0 48 3 60 16 60 10 0 14 7 12 18 -2 9 -10 16 -16 15 -7 -2
-12 10 -12 30 0 24 3 28 10 17 6 -10 10 -11 10 -2z m130 -13 c0 -16 -6 -25
-15 -25 -9 0 -15 9 -15 25 0 16 6 25 15 25 9 0 15 -9 15 -25z m160 15 c0 -5
-7 -10 -15 -10 -8 0 -15 5 -15 10 0 6 7 10 15 10 8 0 15 -4 15 -10z m120 0 c0
-5 -4 -10 -10 -10 -5 0 -10 5 -10 10 0 6 5 10 10 10 6 0 10 -4 10 -10z m120 0
c0 -5 -7 -10 -15 -10 -8 0 -15 -9 -15 -20 0 -11 -4 -20 -10 -20 -5 0 -10 7
-10 15 0 9 -7 18 -15 21 -28 11 -15 24 25 24 22 0 40 -4 40 -10z m1380 0 c0
-5 -7 -10 -16 -10 -8 0 -12 5 -9 10 3 6 10 10 16 10 5 0 9 -4 9 -10z m467 4
c-3 -3 -12 -4 -19 -1 -8 3 -5 6 6 6 11 1 17 -2 13 -5z m-3527 -39 c0 -8 7 -15
15 -15 8 0 15 -6 15 -12 0 -8 -13 -13 -30 -13 -26 0 -30 4 -30 28 0 17 5 27
15 27 8 0 15 -7 15 -15z m1590 -1 c0 -17 -22 -14 -28 4 -2 7 3 12 12 12 9 0
16 -7 16 -16z m810 6 c0 -5 -4 -10 -10 -10 -5 0 -10 5 -10 10 0 6 5 10 10 10
6 0 10 -4 10 -10z m690 0 c0 -5 -4 -10 -10 -10 -5 0 -10 5 -10 10 0 6 5 10 10
10 6 0 10 -4 10 -10z m280 -5 c0 -8 -4 -15 -9 -15 -5 0 -11 7 -15 15 -3 9 0
15 9 15 8 0 15 -7 15 -15z m-2250 -30 c0 -9 -9 -15 -24 -15 -13 0 -26 7 -30
15 -4 11 2 15 24 15 20 0 30 -5 30 -15z m190 -1 c0 -17 -22 -14 -28 4 -2 7 3
12 12 12 9 0 16 -7 16 -16z m128 4 c-2 -8 10 -14 30 -16 24 -2 32 1 32 12 0 9
7 16 15 16 8 0 15 -7 15 -15 0 -10 11 -15 35 -15 24 0 35 5 35 15 0 8 5 15 10
15 6 0 10 -20 10 -45 0 -25 -4 -45 -10 -45 -5 0 -7 7 -4 15 5 11 -1 15 -25 15
-21 0 -31 -5 -31 -15 0 -8 5 -15 10 -15 6 0 10 -7 10 -15 0 -9 -9 -15 -21 -15
-18 0 -20 4 -14 30 l7 30 -57 0 -57 0 4 -30 c3 -20 0 -30 -9 -30 -7 0 -13 7
-13 15 0 8 -7 15 -15 15 -8 0 -15 7 -15 15 0 8 7 15 15 15 8 0 15 7 15 15 0 8
-7 15 -15 15 -8 0 -15 7 -15 15 0 10 10 15 30 15 19 0 29 -5 28 -12z m282 -3
c0 -8 7 -15 15 -15 10 0 15 -10 15 -30 0 -20 5 -30 15 -30 8 0 15 -7 15 -15 0
-8 -7 -15 -15 -15 -8 0 -15 7 -15 15 0 10 -11 15 -35 15 -24 0 -35 5 -35 15 0
8 9 15 20 15 11 0 20 7 20 15 0 10 -10 15 -30 15 -20 0 -30 5 -30 15 0 10 10
15 30 15 20 0 30 -5 30 -15z m250 0 c0 -10 10 -15 30 -15 29 0 30 -1 30 -50 0
-39 3 -50 16 -50 9 0 18 9 21 20 3 11 10 17 15 14 5 -3 12 3 15 15 8 30 78 31
86 1 3 -14 14 -20 34 -21 l28 -1 -30 -8 -30 -8 33 -1 c37 -1 45 -25 11 -34
-18 -5 -20 -11 -14 -34 8 -34 4 -30 37 -38 23 -6 26 -4 21 14 -3 12 -9 21 -14
21 -5 0 -9 7 -9 15 0 8 7 15 15 15 10 0 15 -10 15 -30 0 -20 5 -30 15 -30 8 0
15 -4 15 -10 0 -5 -13 -10 -30 -10 -23 0 -30 -4 -30 -20 0 -11 -7 -20 -15 -20
-8 0 -15 9 -15 20 0 12 7 20 17 20 9 0 14 3 11 6 -10 10 -88 -19 -88 -33 0 -7
-7 -13 -15 -13 -8 0 -15 9 -15 20 0 13 -7 20 -20 20 -13 0 -20 -7 -20 -18 0
-15 -6 -18 -30 -14 -25 4 -30 1 -30 -17 0 -12 -6 -21 -15 -21 -8 0 -15 -7 -15
-15 0 -8 -7 -15 -15 -15 -8 0 -15 7 -15 15 0 8 7 15 15 15 10 0 15 11 15 35 0
24 -5 35 -15 35 -8 0 -15 6 -15 14 0 8 -6 17 -12 20 -7 3 -1 3 15 0 16 -4 27
-2 27 5 0 6 16 11 35 11 28 0 35 4 35 20 0 16 -7 20 -35 20 -28 0 -35 -4 -35
-20 0 -16 -7 -20 -30 -20 -16 0 -30 -4 -30 -10 0 -5 -7 -10 -15 -10 -9 0 -15
9 -15 25 0 21 5 25 30 25 23 0 30 4 30 20 0 11 -7 20 -15 20 -8 0 -15 5 -15
10 0 16 27 12 34 -6 9 -24 26 -6 26 27 0 28 -2 29 -45 29 -33 0 -45 4 -45 15
0 8 7 15 15 15 8 0 15 7 15 15 0 8 7 15 15 15 8 0 15 -7 15 -15z m500 6 c0 -5
-13 -11 -30 -13 -20 -3 -30 0 -30 9 0 8 12 13 30 13 17 0 30 -4 30 -9z m650
-6 c0 -8 -4 -15 -10 -15 -5 0 -10 7 -10 15 0 8 5 15 10 15 6 0 10 -7 10 -15z
m-2280 -25 c0 -11 -4 -20 -10 -20 -5 0 -10 9 -10 20 0 11 5 20 10 20 6 0 10
-9 10 -20z m-720 -5 c0 -8 -4 -15 -10 -15 -5 0 -10 7 -10 15 0 8 5 15 10 15 6
0 10 -7 10 -15z m277 -7 c-3 -8 -6 -5 -6 6 -1 11 2 17 5 13 3 -3 4 -12 1 -19z
m973 7 c0 -8 -4 -15 -10 -15 -5 0 -10 7 -10 15 0 8 5 15 10 15 6 0 10 -7 10
-15z m2357 -7 c-3 -8 -6 -5 -6 6 -1 11 2 17 5 13 3 -3 4 -12 1 -19z m-3387
-23 c0 -8 -4 -15 -10 -15 -5 0 -10 7 -10 15 0 8 5 15 10 15 6 0 10 -7 10 -15z
m120 -6 c0 -5 -4 -9 -10 -9 -5 0 -10 7 -10 16 0 8 5 12 10 9 6 -3 10 -10 10
-16z m880 6 c0 -8 -7 -15 -15 -15 -9 0 -12 6 -9 15 4 8 10 15 15 15 5 0 9 -7
9 -15z m365 -51 c19 -8 20 -24 0 -24 -8 0 -15 7 -15 15 0 8 -7 15 -15 15 -10
0 -15 10 -15 33 l1 32 14 -33 c8 -18 21 -35 30 -38z m855 51 c0 -8 -7 -15 -15
-15 -9 0 -12 6 -9 15 4 8 10 15 15 15 5 0 9 -7 9 -15z m220 0 c0 -8 -7 -15
-15 -15 -8 0 -15 7 -15 15 0 8 7 15 15 15 8 0 15 -7 15 -15z m-2000 -5 c0 -5
-5 -10 -11 -10 -5 0 -7 5 -4 10 3 6 8 10 11 10 2 0 4 -4 4 -10z m-250 -40 c0
-27 -3 -30 -30 -30 -28 0 -30 -3 -30 -35 0 -24 5 -35 15 -35 8 0 15 7 15 15 0
8 7 15 15 15 8 0 15 7 15 15 0 8 7 15 15 15 10 0 15 -10 15 -30 0 -20 5 -30
15 -30 8 0 15 -4 15 -10 0 -5 -7 -10 -15 -10 -11 0 -15 -11 -15 -37 l0 -38
-19 24 c-15 19 -25 23 -59 19 -35 -3 -42 -1 -42 14 0 11 -8 18 -20 18 -16 0
-20 -7 -21 -37 0 -31 -2 -34 -9 -18 -7 17 -9 17 -9 3 -1 -11 -9 -18 -22 -18
-14 0 -19 5 -17 18 2 9 10 16 16 15 7 -2 12 4 12 12 0 8 -7 15 -15 15 -8 0
-15 4 -15 9 0 5 -8 12 -17 14 -14 4 -12 5 5 6 14 1 22 7 22 19 0 15 6 18 30
14 23 -3 30 0 30 12 0 9 7 16 15 16 8 0 15 7 15 15 0 10 10 15 30 15 23 0 30
4 30 20 0 11 7 20 15 20 10 0 15 -10 15 -30z m370 15 c0 -8 -4 -15 -10 -15 -5
0 -10 7 -10 15 0 8 5 15 10 15 6 0 10 -7 10 -15z m470 0 c0 -9 7 -18 15 -21
24 -9 17 -24 -10 -24 -21 0 -25 5 -25 30 0 17 5 30 10 30 6 0 10 -7 10 -15z
m217 -7 c-3 -8 -6 -5 -6 6 -1 11 2 17 5 13 3 -3 4 -12 1 -19z m283 2 c0 -11 7
-20 15 -20 8 0 15 -4 15 -10 0 -5 -11 -10 -25 -10 -21 0 -25 5 -25 30 0 17 5
30 10 30 6 0 10 -9 10 -20z m843 0 c4 -15 14 -20 36 -20 17 0 31 -4 31 -10 0
-5 -13 -10 -30 -10 -28 0 -30 -3 -30 -35 0 -25 4 -35 16 -35 9 0 14 -6 11 -12
-2 -9 -19 -12 -50 -10 l-47 4 0 -36 c0 -25 -4 -36 -15 -36 -8 0 -15 -7 -15
-15 0 -8 -4 -15 -10 -15 -6 0 -10 27 -10 60 0 45 -4 62 -15 66 -8 4 -15 12
-15 20 0 8 -9 14 -20 14 -11 0 -20 -7 -20 -15 0 -10 -10 -15 -30 -15 -25 0
-30 4 -30 25 0 16 6 25 15 25 8 0 15 -7 15 -16 0 -26 25 -9 28 19 3 28 32 39
32 12 0 -10 11 -15 35 -15 28 0 35 4 35 20 0 11 5 20 10 20 6 0 10 -9 10 -20
0 -13 7 -20 20 -20 16 0 20 7 20 35 0 38 14 47 23 15z m217 -16 c0 -13 -4 -24
-10 -24 -5 0 -10 14 -10 31 0 17 4 28 10 24 6 -3 10 -17 10 -31z m-2180 -19
c0 -8 7 -15 15 -15 8 0 15 -4 15 -10 0 -5 -7 -10 -15 -10 -8 0 -15 -7 -15 -15
0 -8 -7 -15 -15 -15 -11 0 -15 11 -15 40 0 29 4 40 15 40 8 0 15 -7 15 -15z
m90 5 c0 -5 -4 -10 -10 -10 -5 0 -10 5 -10 10 0 6 5 10 10 10 6 0 10 -4 10
-10z m2030 -5 c0 -8 7 -15 15 -15 8 0 15 -4 15 -10 0 -5 -11 -10 -25 -10 -20
0 -25 5 -25 25 0 14 5 25 10 25 6 0 10 -7 10 -15z m-1870 -25 c0 -5 -7 -10
-15 -10 -8 0 -15 5 -15 10 0 6 7 10 15 10 8 0 15 -4 15 -10z m2030 -20 c0 -20
-5 -30 -15 -30 -8 0 -15 9 -15 20 0 11 -7 20 -15 20 -8 0 -15 5 -15 10 0 6 14
10 30 10 27 0 30 -3 30 -30z m-2720 -10 c0 -5 -7 -7 -16 -3 -9 3 -20 0 -25 -8
-7 -11 -9 -11 -9 4 0 12 8 17 25 17 14 0 25 -4 25 -10z m1250 0 c0 -5 -4 -10
-10 -10 -5 0 -10 5 -10 10 0 6 5 10 10 10 6 0 10 -4 10 -10z m1900 0 c0 -5 -4
-10 -10 -10 -5 0 -10 5 -10 10 0 6 5 10 10 10 6 0 10 -4 10 -10z m130 0 c0 -5
-7 -10 -15 -10 -8 0 -15 5 -15 10 0 6 7 10 15 10 8 0 15 -4 15 -10z m130 0 c0
-5 -13 -10 -30 -10 -16 0 -30 5 -30 10 0 6 14 10 30 10 17 0 30 -4 30 -10z
m-3630 -35 c0 -8 -4 -15 -10 -15 -5 0 -10 7 -10 15 0 8 5 15 10 15 6 0 10 -7
10 -15z m560 5 c0 -5 -4 -10 -10 -10 -5 0 -10 5 -10 10 0 6 5 10 10 10 6 0 10
-4 10 -10z m660 -5 c0 -8 7 -15 15 -15 10 0 15 -10 15 -30 0 -23 4 -30 20 -30
16 0 20 7 20 30 0 20 5 30 15 30 8 0 15 7 15 15 0 8 5 15 10 15 6 0 10 -7 10
-15 0 -8 9 -15 20 -15 11 0 20 7 20 15 0 10 10 15 30 15 19 0 30 -5 30 -14 0
-8 6 -17 13 -20 6 -3 0 -3 -15 0 -21 5 -28 2 -28 -10 0 -9 -6 -16 -14 -16 -22
0 -31 -52 -11 -66 14 -11 14 -12 -1 -18 -25 -10 -34 -7 -34 9 0 8 -9 15 -20
15 -12 0 -20 -7 -20 -16 0 -9 9 -18 20 -21 38 -10 20 -23 -31 -23 l-51 0 7 30
c6 28 5 30 -24 30 -21 0 -31 5 -31 15 0 10 -11 15 -35 15 -24 0 -35 5 -35 15
0 8 7 15 15 15 10 0 15 10 15 30 0 27 3 30 30 30 20 0 30 -5 30 -15z m1622
-15 c-5 -35 -17 -39 -25 -9 -3 12 -10 18 -16 14 -6 -3 -11 1 -11 9 0 11 9 16
28 16 26 0 28 -3 24 -30z m114 0 c8 0 14 -7 14 -15 0 -8 -7 -15 -15 -15 -8 0
-15 -7 -15 -15 0 -8 -7 -15 -15 -15 -8 0 -15 -7 -15 -15 0 -8 -7 -15 -15 -15
-8 0 -15 -9 -15 -20 0 -11 5 -20 11 -20 6 0 13 9 16 20 3 11 12 20 19 20 8 0
14 7 14 15 0 8 7 15 15 15 8 0 15 -7 15 -15 0 -8 -7 -15 -15 -15 -11 0 -15
-11 -15 -36 0 -28 3 -35 18 -32 9 2 17 10 17 18 0 8 7 15 15 15 10 0 16 12 18
33 4 43 22 41 22 -3 0 -24 5 -35 15 -35 9 0 15 -9 15 -25 0 -14 -5 -25 -11
-25 -6 0 -9 8 -7 18 4 15 1 18 -18 14 -13 -2 -24 -11 -24 -18 0 -8 -7 -14 -15
-14 -8 0 -15 -9 -15 -20 0 -11 -7 -20 -15 -20 -9 0 -12 -6 -9 -15 4 -10 0 -15
-15 -15 -12 0 -21 6 -21 15 0 8 -7 15 -15 15 -8 0 -15 -7 -15 -15 0 -8 -7 -15
-15 -15 -8 0 -15 9 -15 20 0 11 -7 20 -15 20 -10 0 -15 10 -15 30 0 20 -5 30
-15 30 -10 0 -15 10 -15 30 0 27 3 30 30 30 27 0 30 3 31 33 0 27 2 29 9 12 8
-18 9 -18 9 -2 1 10 11 22 24 27 20 8 20 9 2 10 -16 1 -14 4 10 14 17 7 32 9
33 4 2 -4 10 -8 18 -8z m-2926 -16 c0 -8 -4 -12 -10 -9 -5 3 -10 10 -10 16 0
5 5 9 10 9 6 0 10 -7 10 -16z m177 -6 c-3 -8 -6 -5 -6 6 -1 11 2 17 5 13 3 -3
4 -12 1 -19z m603 15 c0 -5 -11 -8 -25 -8 -14 0 -25 3 -25 8 0 4 11 7 25 7 14
0 25 -3 25 -7z m160 -23 c0 -20 -5 -30 -15 -30 -8 0 -15 -7 -15 -15 0 -10 -10
-15 -30 -15 -32 0 -43 -26 -15 -36 8 -4 15 -10 15 -15 0 -5 -7 -9 -15 -9 -8 0
-15 7 -15 15 0 8 -9 15 -20 15 -11 0 -20 -7 -20 -15 0 -8 -7 -15 -15 -15 -10
0 -15 -10 -15 -30 0 -25 -4 -30 -25 -30 -21 0 -25 5 -25 30 0 23 -4 30 -20 30
-11 0 -20 -7 -20 -15 0 -10 -10 -15 -32 -14 -18 1 -25 3 -15 6 9 2 17 13 17
23 0 10 9 20 20 23 11 3 20 12 20 21 0 9 5 16 10 16 6 0 10 -7 10 -15 0 -8 9
-15 20 -15 16 0 20 7 20 30 0 17 5 30 11 30 11 0 9 -17 -6 -67 -9 -27 6 -30
30 -7 13 14 14 19 3 25 -10 7 -9 9 5 9 10 0 17 8 17 20 0 17 7 20 45 20 43 0
45 1 45 30 0 20 5 30 15 30 10 0 15 -10 15 -30z m1279 -2 c0 -28 -2 -30 -9
-13 -12 28 -12 45 0 45 6 0 10 -15 9 -32z m61 22 c0 -5 -4 -10 -10 -10 -5 0
-10 5 -10 10 0 6 5 10 10 10 6 0 10 -4 10 -10z m90 0 c0 -5 -11 -10 -25 -10
-14 0 -25 5 -25 10 0 6 11 10 25 10 14 0 25 -4 25 -10z m380 -5 c0 -8 -4 -15
-10 -15 -5 0 -10 7 -10 15 0 8 5 15 10 15 6 0 10 -7 10 -15z m250 0 c0 -8 -4
-15 -10 -15 -5 0 -10 7 -10 15 0 8 5 15 10 15 6 0 10 -7 10 -15z m-2470 -30
c0 -9 -9 -15 -25 -15 -16 0 -25 6 -25 15 0 9 9 15 25 15 16 0 25 -6 25 -15z
m1084 0 c-4 -8 -8 -15 -10 -15 -2 0 -4 7 -4 15 0 8 4 15 10 15 5 0 7 -7 4 -15z
m76 5 c0 -5 -2 -10 -4 -10 -3 0 -8 5 -11 10 -3 6 -1 10 4 10 6 0 11 -4 11 -10z
m310 -5 c0 -8 -4 -15 -10 -15 -5 0 -10 7 -10 15 0 8 5 15 10 15 6 0 10 -7 10
-15z m90 11 c0 -3 -4 -8 -10 -11 -5 -3 -10 -1 -10 4 0 6 5 11 10 11 6 0 10 -2
10 -4z m-1900 -41 c0 -8 -4 -15 -10 -15 -5 0 -7 7 -4 15 4 8 8 15 10 15 2 0 4
-7 4 -15z m1470 -15 c0 -20 -5 -30 -15 -30 -8 0 -15 7 -15 15 0 10 -11 16 -32
17 l-33 1 33 4 c17 2 32 8 32 14 0 5 7 9 15 9 10 0 15 -10 15 -30z m310 15 c0
-10 -10 -15 -30 -15 -22 0 -28 4 -24 15 4 8 17 15 30 15 15 0 24 -6 24 -15z
m190 0 c0 -8 -4 -15 -10 -15 -5 0 -7 7 -4 15 4 8 8 15 10 15 2 0 4 -7 4 -15z
m220 0 c0 -8 -7 -15 -15 -15 -8 0 -15 7 -15 15 0 8 7 15 15 15 8 0 15 -7 15
-15z m60 0 c0 -8 -7 -15 -15 -15 -8 0 -15 7 -15 15 0 8 7 15 15 15 8 0 15 -7
15 -15z m120 0 c0 -8 -4 -15 -10 -15 -5 0 -10 7 -10 15 0 8 5 15 10 15 6 0 10
-7 10 -15z m500 0 c0 -8 -4 -15 -10 -15 -5 0 -10 7 -10 15 0 8 5 15 10 15 6 0
10 -7 10 -15z m-2837 -36 c5 -17 11 -20 31 -17 18 4 26 1 26 -8 0 -10 -14 -14
-45 -14 -33 0 -45 -4 -45 -15 0 -8 -7 -15 -15 -15 -23 0 -19 47 5 53 11 3 20
12 20 21 0 23 17 20 23 -5z m217 6 c0 -8 -7 -15 -15 -15 -16 0 -20 12 -8 23
11 12 23 8 23 -8z m1340 0 c0 -8 -4 -15 -10 -15 -5 0 -10 7 -10 15 0 8 5 15
10 15 6 0 10 -7 10 -15z m686 -12 c-10 -10 -19 5 -10 18 6 11 8 11 12 0 2 -7
1 -15 -2 -18z m-2126 7 c0 -5 -4 -10 -10 -10 -5 0 -10 5 -10 10 0 6 5 10 10
10 6 0 10 -4 10 -10z m219 3 c0 -5 -4 -17 -9 -28 -8 -18 -9 -17 -9 8 -1 15 4
27 9 27 6 0 10 -3 9 -7z m71 3 c0 -2 -7 -6 -15 -10 -8 -3 -15 -1 -15 4 0 6 7
10 15 10 8 0 15 -2 15 -4z m340 -11 c0 -8 7 -15 15 -15 8 0 15 -4 15 -10 0 -5
-7 -10 -15 -10 -8 0 -15 -7 -15 -15 0 -10 -10 -15 -30 -15 -20 0 -30 -5 -30
-15 0 -10 -10 -15 -30 -15 -16 0 -30 5 -30 11 0 7 9 9 24 5 16 -4 26 -1 30 9
3 10 -1 15 -12 16 -9 1 -1 4 18 8 29 5 36 11 38 34 3 28 22 39 22 12z m1128
-23 c2 -8 -8 -12 -27 -12 -19 0 -31 5 -31 13 0 16 52 15 58 -1z m-1628 -2 c0
-5 -4 -10 -10 -10 -5 0 -10 5 -10 10 0 6 5 10 10 10 6 0 10 -4 10 -10z m145 0
c16 -7 12 -9 -18 -9 -23 -1 -36 3 -32 9 7 12 23 12 50 0z m1765 0 c0 -5 -7
-10 -15 -10 -8 0 -15 5 -15 10 0 6 7 10 15 10 8 0 15 -4 15 -10z m60 0 c0 -5
-7 -10 -15 -10 -8 0 -15 5 -15 10 0 6 7 10 15 10 8 0 15 -4 15 -10z m120 0 c0
-5 -4 -10 -10 -10 -5 0 -10 5 -10 10 0 6 5 10 10 10 6 0 10 -4 10 -10z m570 0
c0 -5 -7 -10 -15 -10 -8 0 -15 5 -15 10 0 6 7 10 15 10 8 0 15 -4 15 -10z m60
0 c0 -5 -4 -10 -9 -10 -6 0 -13 5 -16 10 -3 6 1 10 9 10 9 0 16 -4 16 -10z
m-2340 -30 c0 -5 -7 -10 -15 -10 -8 0 -15 5 -15 10 0 6 7 10 15 10 8 0 15 -4
15 -10z m1150 0 c0 -5 -4 -10 -10 -10 -5 0 -10 5 -10 10 0 6 5 10 10 10 6 0
10 -4 10 -10z m720 0 c0 -5 -4 -10 -10 -10 -5 0 -10 5 -10 10 0 6 5 10 10 10
6 0 10 -4 10 -10z m440 -15 c0 -21 -5 -25 -30 -25 -16 0 -30 5 -30 10 0 6 7
10 15 10 8 0 15 7 15 15 0 8 7 15 15 15 9 0 15 -9 15 -25z m-1190 -15 c0 -5
-4 -10 -10 -10 -5 0 -10 5 -10 10 0 6 5 10 10 10 6 0 10 -4 10 -10z m470 0 c0
-5 -4 -10 -10 -10 -5 0 -10 5 -10 10 0 6 5 10 10 10 6 0 10 -4 10 -10z m560 0
c0 -5 -4 -10 -10 -10 -5 0 -10 5 -10 10 0 6 5 10 10 10 6 0 10 -4 10 -10z m60
-15 c0 -20 -5 -25 -25 -25 -14 0 -25 5 -25 11 0 6 8 9 19 6 14 -3 17 0 14 14
-3 11 0 19 6 19 6 0 11 -11 11 -25z m-2400 -15 c0 -5 -4 -10 -9 -10 -6 0 -13
5 -16 10 -3 6 1 10 9 10 9 0 16 -4 16 -10z m1090 0 c0 -5 -4 -10 -10 -10 -5 0
-10 5 -10 10 0 6 5 10 10 10 6 0 10 -4 10 -10z m1030 -2 c0 -7 -5 -20 -10 -28
-8 -12 -10 -9 -10 13 0 15 5 27 10 27 6 0 10 -6 10 -12z m190 -15 l0 -28 -95
3 c-52 2 -95 7 -95 12 0 4 36 6 80 3 77 -6 80 -5 80 16 0 12 6 21 15 21 10 0
15 -10 15 -27z m-1560 -13 c0 -5 -7 -10 -15 -10 -8 0 -15 5 -15 10 0 6 7 10
15 10 8 0 15 -4 15 -10z"/>
<path d="M1701 3704 c0 -11 3 -14 6 -6 3 7 2 16 -1 19 -3 4 -6 -2 -5 -13z"/>
<path d="M1671 3558 c0 -30 1 -31 9 -10 7 16 18 22 40 22 16 0 30 5 30 10 0 6
-18 10 -40 10 -39 0 -40 -1 -39 -32z"/>
<path d="M1322 1610 c0 -14 2 -19 5 -12 2 6 2 18 0 25 -3 6 -5 1 -5 -13z"/>
<path d="M2690 830 c0 -5 4 -10 9 -10 6 0 13 5 16 10 3 6 -1 10 -9 10 -9 0
-16 -4 -16 -10z"/>
<path d="M3008 833 c7 -3 16 -2 19 1 4 3 -2 6 -13 5 -11 0 -14 -3 -6 -6z"/>
<path d="M520 698 c0 -4 5 -8 11 -8 6 0 9 -7 5 -15 -3 -9 0 -15 9 -15 8 0 15
6 15 14 0 8 6 16 13 19 6 2 -3 6 -20 9 -18 2 -33 1 -33 -4z"/>
<path d="M570 640 c0 -5 -9 -10 -20 -10 -13 0 -20 -7 -20 -20 0 -13 7 -20 20
-20 12 0 20 7 20 18 0 14 2 15 10 2 8 -12 10 -9 10 13 0 15 -4 27 -10 27 -5 0
-10 -4 -10 -10z"/>
<path d="M357 624 c4 -12 8 -13 13 -3 6 8 9 6 13 -7 4 -16 5 -16 6 4 1 16 -5
22 -19 22 -14 0 -18 -5 -13 -16z"/>
<path d="M507 563 c-13 -12 -7 -33 8 -33 8 0 15 9 15 20 0 20 -11 26 -23 13z"/>
<path d="M1285 890 c-3 -5 3 -10 14 -10 12 0 21 -7 21 -15 0 -8 7 -15 15 -15
8 0 15 -4 15 -10 0 -5 3 -10 8 -10 4 0 7 16 8 35 0 34 -1 35 -37 35 -21 0 -41
-4 -44 -10z"/>
<path d="M1851 824 c0 -11 3 -14 6 -6 3 7 2 16 -1 19 -3 4 -6 -2 -5 -13z"/>
<path d="M1730 740 c0 -5 5 -10 10 -10 6 0 10 5 10 10 0 6 -4 10 -10 10 -5 0
-10 -4 -10 -10z"/>
<path d="M2671 734 c0 -11 3 -14 6 -6 3 7 2 16 -1 19 -3 4 -6 -2 -5 -13z"/>
<path d="M3780 545 c0 -8 7 -15 15 -15 8 0 15 7 15 15 0 8 -7 15 -15 15 -8 0
-15 -7 -15 -15z"/>
<path d="M3700 495 c0 -15 43 -45 63 -44 16 1 18 2 5 6 -10 2 -18 13 -18 24 0
14 -7 19 -25 19 -14 0 -25 -2 -25 -5z"/>
<path d="M1426 535 c2 -11 4 -23 4 -27 0 -15 40 -8 40 7 0 8 -9 15 -19 15 -11
0 -21 6 -24 13 -2 6 -3 3 -1 -8z"/>
<path d="M2340 420 c0 -13 7 -20 20 -20 13 0 20 7 20 20 0 13 -7 20 -20 20
-13 0 -20 -7 -20 -20z"/>
<path d="M2410 420 c0 -5 5 -10 10 -10 6 0 10 5 10 10 0 6 -4 10 -10 10 -5 0
-10 -4 -10 -10z"/>
<path d="M728 303 c7 -3 16 -2 19 1 4 3 -2 6 -13 5 -11 0 -14 -3 -6 -6z"/>
<path d="M2190 3985 c0 -8 7 -15 15 -15 8 0 15 7 15 15 0 8 -7 15 -15 15 -8 0
-15 -7 -15 -15z"/>
<path d="M2256 3933 c-14 -14 -5 -23 24 -23 36 0 41 25 6 28 -13 1 -26 -1 -30
-5z"/>
<path d="M2280 3860 c0 -5 7 -10 15 -10 8 0 15 5 15 10 0 6 -7 10 -15 10 -8 0
-15 -4 -15 -10z"/>
<path d="M2627 3624 c-12 -13 -7 -34 8 -34 8 0 15 -7 15 -16 0 -9 7 -14 18
-12 20 4 26 58 6 58 -7 0 -19 2 -26 5 -8 3 -17 2 -21 -1z"/>
<path d="M2620 3485 c0 -8 -7 -15 -15 -15 -8 0 -15 -7 -15 -15 0 -11 12 -15
50 -15 50 0 69 17 30 27 -11 3 -20 12 -20 19 0 8 -7 14 -15 14 -8 0 -15 -7
-15 -15z"/>
<path d="M2530 3420 c0 -5 9 -10 21 -10 11 0 17 5 14 10 -3 6 -13 10 -21 10
-8 0 -14 -4 -14 -10z"/>
<path d="M2630 3390 c0 -5 5 -10 10 -10 6 0 10 5 10 10 0 6 -4 10 -10 10 -5 0
-10 -4 -10 -10z"/>
<path d="M2502 3328 c6 -18 58 -19 58 -2 0 9 -12 14 -31 14 -20 0 -29 -4 -27
-12z"/>
<path d="M2410 3105 c0 -10 -11 -15 -35 -15 -38 0 -48 -19 -15 -27 11 -3 20
-12 20 -19 0 -8 -9 -14 -20 -14 -11 0 -20 7 -20 15 0 8 -7 15 -15 15 -10 0
-15 -10 -15 -30 0 -20 -5 -30 -15 -30 -8 0 -15 -7 -15 -15 0 -10 10 -15 30
-15 20 0 30 5 30 15 0 22 27 18 33 -5 3 -11 10 -20 17 -20 7 0 14 9 17 20 3
11 12 20 19 20 8 0 14 7 14 15 0 15 13 19 63 15 24 -1 27 2 27 29 0 30 14 38
53 32 4 0 7 6 7 14 0 12 -17 15 -90 15 -73 0 -90 -3 -90 -15z"/>
<path d="M1848 2844 c3 -20 0 -26 -17 -31 -11 -3 -21 -12 -21 -19 0 -9 -11
-14 -30 -14 -20 0 -30 -5 -30 -15 0 -8 -7 -15 -15 -15 -8 0 -15 -7 -15 -15 0
-8 7 -15 15 -15 8 0 15 7 15 15 0 10 10 15 30 15 29 0 30 -2 30 -43 0 -24 2
-46 4 -48 3 -2 25 -3 50 -1 31 3 46 9 46 18 0 19 19 18 26 -1 4 -8 12 -15 20
-15 8 0 14 7 14 15 0 8 7 15 15 15 8 0 15 7 15 15 0 8 6 15 14 15 8 0 16 6 19
13 7 18 57 20 57 2 0 -8 -7 -15 -16 -15 -9 0 -14 -7 -12 -17 5 -26 27 -27 37
-1 4 12 12 23 17 23 5 0 9 26 9 57 l0 58 -32 0 c-23 0 -33 5 -33 15 0 12 -19
15 -109 15 l-108 0 5 -26z m62 -20 c0 -9 -7 -14 -17 -12 -25 5 -28 28 -4 28
12 0 21 -6 21 -16z m90 -59 c0 -8 -7 -15 -15 -15 -8 0 -15 -7 -15 -15 0 -10
-10 -15 -30 -15 -20 0 -30 5 -30 15 0 10 10 15 30 15 20 0 30 5 30 15 0 8 7
15 15 15 8 0 15 -7 15 -15z"/>
<path d="M2161 2764 c0 -11 3 -14 6 -6 3 7 2 16 -1 19 -3 4 -6 -2 -5 -13z"/>
<path d="M2690 2705 c0 -8 -6 -15 -14 -15 -8 0 -16 -13 -18 -29 -3 -22 0 -31
14 -34 22 -6 24 -37 3 -37 -10 0 -15 -10 -15 -30 0 -16 4 -30 10 -30 5 0 12
-15 15 -33 6 -30 9 -33 36 -29 22 3 29 0 29 -12 0 -9 -7 -16 -15 -16 -8 0 -15
-7 -15 -15 0 -11 12 -15 45 -15 33 0 45 4 45 15 0 10 11 15 35 15 24 0 35 -5
35 -15 0 -8 7 -15 15 -15 12 0 14 7 9 28 -4 15 -10 29 -14 32 -10 7 -19 60 -9
60 4 0 10 -13 14 -30 5 -21 13 -30 26 -30 10 0 19 7 19 15 0 8 -9 15 -21 15
-18 0 -20 4 -13 45 l6 45 -66 0 c-52 0 -66 3 -66 15 0 13 -25 21 -52 16 -5 0
-8 22 -8 49 0 38 -4 50 -15 50 -8 0 -15 -7 -15 -15z"/>
<path d="M2540 2579 c0 -5 5 -7 10 -4 6 3 10 8 10 11 0 2 -4 4 -10 4 -5 0 -10
-5 -10 -11z"/>
<path d="M1623 2551 c-3 -12 -12 -21 -19 -21 -10 0 -14 -13 -14 -45 0 -33 -4
-45 -15 -45 -10 0 -15 -10 -15 -30 l0 -30 95 0 c78 0 95 3 95 15 0 8 -7 15
-15 15 -8 0 -15 7 -15 16 0 12 6 15 22 11 31 -8 68 2 68 19 0 9 -11 14 -30 14
-20 0 -30 5 -30 15 0 9 -7 18 -15 21 -8 4 -15 17 -15 30 0 15 -6 24 -15 24
-10 0 -15 -10 -15 -30 0 -28 -3 -30 -30 -28 -30 2 -43 28 -14 28 9 0 14 7 12
17 -5 25 -29 28 -35 4z"/>
<path d="M1440 2530 c0 -28 -3 -30 -35 -30 -24 0 -35 5 -35 15 0 8 -7 15 -15
15 -10 0 -15 -10 -15 -30 0 -20 5 -30 15 -30 8 0 15 -7 15 -15 0 -8 -7 -15
-15 -15 -8 0 -15 -7 -15 -15 0 -8 -7 -15 -16 -15 -9 0 -14 8 -13 18 4 45 -2
72 -16 72 -8 0 -15 -7 -15 -15 0 -10 -10 -15 -30 -15 -20 0 -30 -5 -30 -15 0
-10 -10 -15 -33 -15 -29 0 -33 3 -32 27 0 14 -6 28 -12 30 -7 3 -13 -2 -13
-11 0 -12 -10 -16 -35 -16 -35 0 -35 0 -35 -45 0 -47 13 -58 35 -28 17 22 35
8 35 -28 0 -20 4 -29 13 -26 6 2 12 10 12 18 0 30 30 14 33 -18 4 -36 32 -47
32 -13 0 11 7 20 15 20 8 0 15 5 15 10 0 6 7 10 15 10 9 0 18 7 21 15 4 8 10
15 15 15 5 0 9 -7 9 -15 0 -8 9 -15 20 -15 11 0 20 7 20 15 0 8 5 15 10 15 6
0 10 -7 10 -15 0 -8 9 -15 20 -15 11 0 20 6 20 14 0 10 19 16 60 21 33 4 60
11 60 16 0 5 -7 9 -15 9 -8 0 -15 9 -15 20 0 16 7 20 35 20 24 0 35 5 35 15 0
8 -9 15 -20 15 -14 0 -20 7 -20 21 0 18 -4 20 -30 14 -23 -5 -30 -3 -30 9 0 9
-7 16 -15 16 -10 0 -15 -10 -15 -30z m-160 -105 c0 -8 -7 -15 -15 -15 -8 0
-15 7 -15 15 0 8 7 15 15 15 8 0 15 -7 15 -15z m116 -12 c-10 -10 -19 5 -10
18 6 11 8 11 12 0 2 -7 1 -15 -2 -18z"/>
<path d="M1508 2553 c7 -3 16 -2 19 1 4 3 -2 6 -13 5 -11 0 -14 -3 -6 -6z"/>
<path d="M2590 2545 c0 -8 6 -15 14 -15 8 0 16 7 20 15 4 10 -1 15 -14 15 -11
0 -20 -7 -20 -15z"/>
<path d="M1970 2395 c0 -8 7 -15 15 -15 8 0 15 7 15 15 0 8 -7 15 -15 15 -8 0
-15 -7 -15 -15z"/>
<path d="M2817 2403 c-12 -11 -8 -23 8 -23 8 0 15 7 15 15 0 16 -12 20 -23 8z"/>
<path d="M1780 2390 c0 -5 7 -10 15 -10 8 0 15 5 15 10 0 6 -7 10 -15 10 -8 0
-15 -4 -15 -10z"/>
<path d="M2535 2390 c-3 -5 3 -10 14 -10 12 0 21 5 21 10 0 6 -6 10 -14 10 -8
0 -18 -4 -21 -10z"/>
<path d="M1428 2383 c6 -2 18 -2 25 0 6 3 1 5 -13 5 -14 0 -19 -2 -12 -5z"/>
<path d="M2038 2363 c7 -3 16 -2 19 1 4 3 -2 6 -13 5 -11 0 -14 -3 -6 -6z"/>
<path d="M1817 2343 c-13 -12 -7 -33 8 -33 8 0 15 -7 15 -15 0 -8 -7 -15 -15
-15 -10 0 -15 -10 -15 -30 0 -29 1 -30 50 -30 38 0 50 -4 50 -15 0 -8 7 -15
15 -15 8 0 15 -7 15 -15 0 -8 7 -15 15 -15 8 0 15 7 15 15 0 8 -7 15 -15 15
-8 0 -15 7 -15 15 0 8 -7 15 -15 15 -11 0 -15 12 -15 45 0 33 4 45 15 45 28 0
15 28 -14 32 -22 3 -31 0 -34 -14 -7 -25 -37 -23 -37 2 0 20 -11 26 -23 13z"/>
<path d="M1810 170 c0 -13 7 -20 20 -20 13 0 20 7 20 20 0 13 -7 20 -20 20
-13 0 -20 -7 -20 -20z"/>
<path d="M2620 140 c0 -13 7 -20 20 -20 13 0 20 7 20 20 0 13 -7 20 -20 20
-13 0 -20 -7 -20 -20z"/>
<path d="M2036 105 c4 -10 0 -15 -15 -15 -12 0 -21 -4 -21 -10 0 -15 27 -12
44 6 20 19 20 34 1 34 -9 0 -12 -6 -9 -15z"/>
<path d="M2608 83 c6 -2 18 -2 25 0 6 3 1 5 -13 5 -14 0 -19 -2 -12 -5z"/>
<path d="M2500 15 c0 -8 5 -15 10 -15 6 0 10 7 10 15 0 8 -4 15 -10 15 -5 0
-10 -7 -10 -15z"/>
</g>
</svg>
