<?xml version="1.0" standalone="no"?>
<!DOCTYPE svg PUBLIC "-//W3C//DTD SVG 20010904//EN"
 "http://www.w3.org/TR/2001/REC-SVG-20010904/DTD/svg10.dtd">
<svg version="1.0" xmlns="http://www.w3.org/2000/svg"
 width="231.000000pt" height="231.000000pt" viewBox="0 0 231.000000 231.000000"
 preserveAspectRatio="xMidYMid meet">
<metadata>
Created by potrace 1.11, written by Peter Selinger 2001-2013
</metadata>
<g transform="translate(0.000000,231.000000) scale(0.100000,-0.100000)"
fill="#000000" stroke="none">
<path d="M1055 2261 c-130 -77 -347 -203 -390 -227 -22 -12 -80 -45 -130 -74
-92 -54 -100 -58 -240 -138 -44 -25 -88 -52 -97 -60 -10 -8 -18 -12 -18 -7 0
4 -7 2 -15 -5 -13 -11 -15 -89 -15 -591 l0 -579 41 -25 c22 -15 48 -29 57 -32
9 -3 24 -11 32 -18 8 -7 40 -26 70 -42 91 -50 253 -145 283 -165 15 -11 27
-16 27 -12 0 4 8 0 18 -8 9 -8 62 -41 117 -72 55 -31 107 -61 115 -66 64 -37
144 -83 189 -108 l54 -29 74 43 c40 24 78 44 83 44 6 0 10 3 10 8 0 4 10 12
23 18 38 18 141 76 169 95 14 11 28 19 31 19 2 0 66 36 142 80 76 44 141 80
146 80 5 0 9 5 9 10 0 6 5 10 11 10 6 0 45 20 86 45 40 25 75 45 77 45 2 0 33
17 67 39 l64 38 3 581 2 581 -67 37 c-38 20 -95 54 -128 74 -33 20 -67 39 -75
43 -8 4 -33 18 -55 32 -22 14 -47 28 -55 32 -8 4 -43 24 -78 45 -34 21 -64 38
-67 38 -3 0 -34 18 -70 40 -36 22 -67 40 -69 40 -1 0 -77 43 -167 95 -89 52
-168 95 -174 94 -5 -1 -46 -22 -90 -48z"/>
</g>
</svg>
